<svg width="191" height="283" viewBox="0 0 191 283" fill="none" xmlns="http://www.w3.org/2000/svg">
<path d="M179.076 197.019C182.466 215.072 181.309 250.161 149.566 246.094C117.823 242.028 156.013 211.683 179.076 197.019Z" fill="#43856A"/>
<path d="M73.6182 209.019C70.2287 227.072 71.3854 262.161 103.129 258.094C134.872 254.028 96.6813 223.683 73.6182 209.019Z" fill="#43856A"/>
<path d="M119.233 267.65C138.833 236.45 127.399 186.317 119.233 165.15C107.732 137.15 95.7321 132.75 111.732 169.15C127.732 205.55 121.399 243.317 116.233 257.65C109.066 273.984 99.6326 298.85 119.233 267.65Z" fill="#43856A"/>
<path d="M50.6594 85.1624C58.6822 85.9969 60.9872 91.9673 61.1369 94.8482C61.1369 97.8285 60.5382 100.958 57.844 105.13C55.6886 108.468 48.2645 111.09 44.8219 111.984C43.375 111.736 40.2118 111.388 39.1341 111.984C37.787 112.73 34.9431 112.73 32.5483 112.432C30.1534 112.134 30.1534 112.581 27.1598 113.177C24.1663 113.773 7.10287 111.686 6.80351 107.216C6.56403 103.64 5.80566 102.547 5.45641 102.448C4.40866 102.1 2.07368 100.958 1.11573 99.1695C-0.0816976 96.9343 -0.0816976 94.8482 0.0679812 94.1031C0.21766 93.358 2.7622 84.1194 20.8733 83.8213C38.9845 83.5233 40.6309 84.1194 50.6594 85.1624Z" fill="#F4AD17"/>
<path d="M74.2405 63.0316C74.2406 63.9258 73.8293 71.4876 73.1928 72.1213C70.9191 74.3848 71.3636 75.8975 66.2754 77.1698C62.2048 78.1876 54.9544 74.9533 51.838 73.2089C51.0044 72.0017 49.0329 69.5109 47.8162 69.205C46.2952 68.8225 44.2843 66.8206 42.8182 64.9083C41.3522 62.9961 41.0111 63.3356 38.4396 61.681C35.8681 60.0264 25.394 46.4301 28.5928 42.8241C31.1518 39.9393 31.4492 38.5755 31.2781 38.2542C30.8025 37.2525 30.0229 34.7411 30.7097 32.7087C31.5683 30.1681 33.1598 28.5837 33.8341 28.1232C34.5083 27.6626 43.3558 22.437 56.3897 34.9601C69.4236 47.4832 74.2399 52.9851 74.2405 63.0316Z" fill="#CF000C"/>
<path d="M98.5971 63.9461C97.833 64.4813 91.1918 68.62 90.3718 68.4013C87.443 67.62 86.3449 68.9427 83.0317 64.9244C80.3812 61.7098 79.9729 52.9635 80.1 48.9922C80.7668 47.4867 82.0326 44.1443 81.7617 42.8182C81.4231 41.1606 82.254 38.0736 83.2465 35.5521C84.2391 33.0306 83.7998 32.9135 84.0886 29.5077C84.3775 26.102 91.4128 8.12676 95.8935 8.97372C99.478 9.65128 100.773 9.11454 100.973 8.76148C101.621 7.71531 103.426 5.4802 105.463 4.90912C108.009 4.19528 110.059 4.74216 110.748 5.09996C111.436 5.45776 119.772 10.6417 114.774 30.3793C109.775 50.1168 107.181 57.9336 98.5971 63.9461Z" fill="#F4AD17"/>
<path d="M122.257 86.611C121.405 86.3583 114.356 83.8456 113.987 83.0847C112.668 80.3666 111.064 80.3455 111.724 75.3347C112.252 71.3261 117.999 65.6121 120.806 63.2563C122.262 62.8353 125.359 61.737 126.097 60.7111C127.021 59.4288 129.667 58.1563 132.027 57.3564C134.387 56.5566 134.189 56.1489 136.71 54.2658C139.232 52.3826 156.03 46.6498 158.287 50.5929C160.093 53.7473 161.282 54.4046 161.651 54.3389C162.779 54.1872 165.457 54.1842 167.14 55.3864C169.243 56.8891 170.167 58.7917 170.357 59.5382C170.548 60.2847 172.269 69.8491 155.551 78.2251C138.833 86.6012 131.823 89.4492 122.257 86.611Z" fill="#CF000C"/>
<path d="M106.809 119.14C106.43 118.29 103.645 111.004 104.02 110.246C105.357 107.537 104.268 106.209 108.867 103.751C112.547 101.784 121.236 103.077 125.121 103.969C126.474 104.911 129.519 106.794 130.877 106.786C132.575 106.776 135.453 108.184 137.742 109.641C140.032 111.098 140.233 110.692 143.53 111.632C146.826 112.573 163.157 122.92 161.454 127.132C160.091 130.501 160.368 131.87 160.677 132.133C161.581 132.968 163.431 135.163 163.598 137.263C163.806 139.887 162.87 141.784 162.384 142.387C161.898 142.99 155.176 150.128 136.715 141.429C118.254 132.731 111.062 128.686 106.809 119.14Z" fill="#F4AD17"/>
<path d="M65.2718 125.11C69.0953 118.026 75.8899 111.701 78.9809 112.755C82.1218 113.988 85.1999 115.838 88.6083 120.06C91.3351 123.437 91.3746 131.398 91.0536 134.956C90.2609 136.194 88.7337 138.979 88.9664 140.224C89.2573 141.78 88.2137 144.413 87.0208 146.508C85.8279 148.602 86.299 148.787 85.8286 151.806C85.3583 154.825 76.8981 169.764 72.077 168.191C68.2202 166.933 66.7903 167.183 66.5574 167.465C65.8065 168.292 63.7457 169.981 61.5096 170.128C58.7146 170.312 56.5161 169.449 55.7858 169.002C55.0555 168.555 46.2528 162.375 52.5848 145.479C58.9168 128.583 60.4925 133.966 65.2718 125.11Z" fill="#CF000C"/>
</svg>
