<svg width="235" height="231" viewBox="0 0 235 231" fill="none" xmlns="http://www.w3.org/2000/svg">
<g opacity="0.6">
<path d="M76.452 129.471C88.5546 130.733 92.0293 139.74 92.2538 144.085C92.2525 148.58 91.3479 153.3 87.2817 159.591C84.0287 164.625 72.8278 168.577 67.634 169.924C65.4514 169.549 60.6796 169.023 59.0535 169.922C57.021 171.045 52.7308 171.044 49.1181 170.593C45.5054 170.143 45.5052 170.817 40.9889 171.715C36.4727 172.613 10.7322 169.458 10.2826 162.716C9.92288 157.321 8.7793 155.673 8.25248 155.523C6.67203 154.998 3.15004 153.274 1.7057 150.576C-0.0997307 147.205 -0.0988163 144.058 0.127311 142.934C0.353439 141.811 4.19611 127.877 31.5182 127.435C58.8402 126.994 61.3238 127.894 76.452 129.471Z" fill="#F4AD17"/>
<path d="M112.036 96.102C112.036 97.4507 111.412 108.856 110.452 109.812C107.021 113.225 107.691 115.506 100.014 117.423C93.8731 118.957 82.9367 114.075 78.2362 111.443C76.9791 109.622 74.0061 105.864 72.1707 105.402C69.8763 104.824 66.8436 101.804 64.6328 98.9189C62.4219 96.0341 61.9073 96.546 58.0287 94.0492C54.1502 91.5524 38.3552 71.0404 43.1824 65.6029C47.0441 61.2529 47.4934 59.196 47.2353 58.7113C46.5183 57.2003 45.3434 53.412 46.3804 50.3468C47.6766 46.5152 50.0783 44.1261 51.0957 43.4318C52.113 42.7374 65.4624 34.8596 85.1195 53.7539C104.776 72.6481 112.04 80.9489 112.036 96.102Z" fill="#CF000C"/>
<path d="M148.779 97.4918C147.626 98.2987 137.606 104.538 136.369 104.208C131.951 103.028 130.294 105.023 125.297 98.9606C121.3 94.1108 120.688 80.9186 120.882 74.9287C121.888 72.6583 123.799 67.6174 123.391 65.6171C122.881 63.1168 124.136 58.461 125.634 54.6583C127.133 50.8556 126.47 50.6787 126.907 45.5419C127.344 40.4051 137.966 13.2961 144.725 14.5756C150.132 15.5991 152.086 14.7901 152.388 14.2577C153.366 12.68 156.089 9.30959 159.163 8.44912C163.005 7.37355 166.097 8.19931 167.136 8.73928C168.174 9.27925 180.747 17.1019 173.198 46.87C165.649 76.638 161.732 88.4268 148.779 97.4918Z" fill="#F4AD17"/>
<path d="M184.461 131.687C183.177 131.306 172.544 127.513 171.988 126.365C169.999 122.265 167.579 122.232 168.577 114.675C169.376 108.629 178.047 100.013 182.283 96.4606C184.479 95.8263 189.152 94.1711 190.267 92.6241C191.661 90.6904 195.653 88.7722 199.213 87.5668C202.774 86.3614 202.475 85.7464 206.28 82.9072C210.084 80.0679 235.428 71.4285 238.831 77.3768C241.554 82.1355 243.348 83.1273 243.904 83.0284C245.607 82.8001 249.647 82.7968 252.185 84.6108C255.357 86.8782 256.749 89.7483 257.036 90.8743C257.323 92.0004 259.916 106.427 234.692 119.053C209.468 131.68 198.891 135.972 184.461 131.687Z" fill="#CF000C"/>
<path d="M161.144 180.744C160.573 179.463 156.374 168.472 156.939 167.328C158.959 163.243 157.316 161.239 164.255 157.533C169.807 154.569 182.915 156.523 188.776 157.87C190.816 159.292 195.409 162.133 197.458 162.121C200.019 162.107 204.359 164.232 207.813 166.431C211.266 168.629 211.569 168.016 216.542 169.437C221.516 170.857 246.147 186.47 243.575 192.822C241.518 197.904 241.935 199.968 242.401 200.366C243.765 201.625 246.555 204.937 246.805 208.104C247.119 212.063 245.705 214.923 244.972 215.832C244.239 216.742 234.096 227.504 206.249 214.376C178.403 201.248 167.555 195.144 161.144 180.744Z" fill="#F4AD17"/>
</g>
</svg>
