<svg width="135" height="136" viewBox="0 0 135 136" fill="none" xmlns="http://www.w3.org/2000/svg">
<g opacity="0.6">
<path d="M81.7602 56.996C78.5298 59.423 75.2999 57.7201 74.0887 56.5652C72.8916 55.317 71.8507 53.7991 71.1471 51.1192C70.5842 48.9752 72.2099 45.3074 73.0931 43.7415C73.715 43.3448 74.9962 42.3957 75.1457 41.7731C75.3325 40.9948 76.3588 40.0106 77.3428 39.3066C78.3267 38.6026 78.1471 38.4154 78.988 37.1297C79.8289 35.844 86.8246 30.8125 88.7282 32.5812C90.2512 33.9963 90.9638 34.1915 91.1297 34.1122C91.6475 33.8952 92.949 33.5656 94.0129 33.9831C95.3428 34.5048 96.1808 35.3786 96.4261 35.7425C96.6713 36.1063 99.464 40.8565 93.0479 47.2492C86.6318 53.642 85.7982 53.9622 81.7602 56.996Z" fill="#F4AD17"/>
<path d="M82.139 74.4261C81.7798 74.0516 78.8908 70.742 78.866 70.2563C78.7773 68.5214 78.0093 68.0417 79.3344 65.7478C80.3945 63.9128 84.3102 62.7582 86.1355 62.4103C86.9212 62.6274 88.6331 62.9884 89.1951 62.6954C89.8976 62.3292 91.4274 62.4718 92.7246 62.7653C94.0217 63.0589 94.0084 62.7986 95.601 62.6017C97.1937 62.4048 106.435 64.4746 106.729 67.092C106.964 69.1859 107.405 69.86 107.595 69.9354C108.169 70.1903 109.459 70.9724 110.028 72.0613C110.739 73.4226 110.801 74.637 110.742 75.0632C110.684 75.4895 109.59 80.7401 99.8564 80.0057C90.1227 79.2713 86.1746 78.6337 82.139 74.4261Z" fill="#F4AD17"/>
<path d="M72.9828 82.4724C73.0435 81.9839 73.7778 77.952 74.1615 77.7598C75.5323 77.0734 75.3972 76.1394 78.2069 76.6758C80.4547 77.1049 84.1152 80.6269 85.6645 82.3342C86.0286 83.1955 86.9143 85.0336 87.5447 85.4953C88.3328 86.0723 89.2729 87.6529 89.9275 89.0525C90.5821 90.4521 90.7877 90.3491 92.0515 91.8755C93.3153 93.402 97.9966 103.366 96.0394 104.561C94.4737 105.518 94.2218 106.191 94.2916 106.408C94.478 107.071 94.7245 108.631 94.2187 109.576C93.5865 110.756 92.627 111.236 92.2348 111.325C91.8427 111.413 86.7522 112.127 80.628 102.13C74.5037 92.1333 72.3001 87.9615 72.9828 82.4724Z" fill="#F4AD17"/>
<path d="M55.3409 81.1678C55.7496 80.9789 59.3027 79.5918 59.7416 79.7827C61.3094 80.4647 61.8966 79.9185 63.6712 82.2456C65.0908 84.1073 65.3122 88.4893 65.2455 90.4475C64.8891 91.1277 64.2128 92.6595 64.3582 93.3449C64.54 94.2016 64.0963 95.6503 63.5659 96.802C63.0356 97.9538 63.2707 98.056 63.1173 99.7174C62.9638 101.379 59.2044 109.593 56.8061 108.723C54.8874 108.027 54.1943 108.163 54.0875 108.318C53.7412 108.772 52.776 109.7 51.6859 109.779C50.3232 109.878 49.2258 109.4 48.8572 109.154C48.4886 108.907 44.0256 105.497 46.6942 96.2027C49.3628 86.9087 50.7487 83.2897 55.3409 81.1678Z" fill="#F4AD17"/>
<path d="M47.8489 62.197C48.3268 62.4219 52.2585 64.5095 52.428 64.9568C53.0334 66.5543 53.9599 66.7337 53.2877 69.355C52.7498 71.452 49.0946 73.918 47.3342 74.8888C46.4676 74.9623 44.6125 75.2275 44.1257 75.7009C43.5171 76.2927 41.9129 76.6988 40.5014 76.881C39.0899 77.0632 39.1807 77.3028 37.613 78.0498C36.0454 78.7967 25.996 80.1149 24.9191 77.7613C24.0575 75.8784 23.4077 75.4009 23.1905 75.3975C22.5288 75.3607 20.9796 75.0817 20.076 74.26C18.9464 73.2328 18.5227 72.1145 18.4558 71.6937C18.3888 71.273 17.9475 65.9572 28.1036 63.2114C38.2597 60.4656 42.4799 59.6708 47.8489 62.197Z" fill="#F4AD17"/>
<path d="M60.441 45.3212C61.9068 49.6117 61.9953 54.6122 60.4566 55.2406C58.8277 55.811 56.9739 56.1016 54.0481 55.5128C51.7074 55.0419 48.4955 51.7213 47.1821 50.1198C46.9712 49.3273 46.4035 47.6321 45.8195 47.1913C45.0896 46.6403 44.4083 45.176 43.9975 43.8859C43.5866 42.5958 43.3423 42.6813 42.2994 41.2541C41.2565 39.8268 38.309 30.6419 40.6806 29.6322C42.5779 28.8245 42.9935 28.2249 42.9641 28.0261C42.9031 27.4201 42.9682 25.9992 43.716 25.1638C44.6508 24.1195 45.791 23.7202 46.2341 23.6547C46.6772 23.5892 52.3363 23.1312 56.8379 32.3993C61.3395 41.6674 58.6086 39.9581 60.441 45.3212Z" fill="#F4AD17"/>
</g>
</svg>
