<svg width="113" height="115" viewBox="0 0 113 115" fill="none" xmlns="http://www.w3.org/2000/svg">
<g opacity="0.65">
<path d="M32.7115 55.3316C37.8919 55.8737 39.3803 59.7528 39.477 61.6246C39.477 63.5609 39.0904 65.594 37.3507 68.3048C35.9589 70.4735 31.1651 72.1774 28.9422 72.7583C28.0079 72.597 25.9653 72.3711 25.2695 72.7583C24.3996 73.2424 22.5633 73.2424 21.0169 73.0488C19.4705 72.8551 19.4705 73.1456 17.5375 73.5329C15.6045 73.9201 4.58643 72.5647 4.39313 69.6602C4.23849 67.3367 3.7488 66.6267 3.52328 66.5621C2.84673 66.3362 1.339 65.594 0.720445 64.4322C-0.0527533 62.98 -0.0527533 61.6246 0.0438964 61.1405C0.140546 60.6564 1.78359 54.6539 13.4782 54.4602C25.1728 54.2666 26.236 54.6539 32.7115 55.3316Z" fill="#F4AD17"/>
<path d="M47.9378 40.9531C47.9378 41.5341 47.6722 46.4471 47.2612 46.8588C45.7931 48.3295 46.0801 49.3123 42.7946 50.1389C40.1662 50.8002 35.4845 48.6988 33.4722 47.5655C32.9339 46.7812 31.6609 45.1628 30.8752 44.964C29.8931 44.7156 28.5946 43.4149 27.6479 42.1724C26.7013 40.93 26.4811 41.1506 24.8206 40.0756C23.1601 39.0005 16.3969 30.1668 18.4624 27.8239C20.1148 25.9496 20.3068 25.0635 20.1963 24.8548C19.8892 24.204 19.3858 22.5723 19.8293 21.2518C20.3837 19.6011 21.4114 18.5717 21.8467 18.2725C22.2821 17.9733 27.9951 14.5781 36.4112 22.7146C44.8274 30.851 47.9373 34.4257 47.9378 40.9531Z" fill="#F4AD17"/>
<path d="M63.6658 41.5472C63.1724 41.8949 58.884 44.5839 58.3546 44.4418C56.4634 43.9342 55.7544 44.7936 53.615 42.1828C51.9035 40.0942 51.6398 34.4116 51.7219 31.8314C52.1525 30.8533 52.9699 28.6816 52.7949 27.82C52.5763 26.7431 53.1128 24.7374 53.7537 23.0991C54.3946 21.4609 54.1109 21.3848 54.2974 19.172C54.4839 16.9592 59.0268 5.28041 61.92 5.83069C64.2346 6.27091 65.0711 5.92218 65.2 5.69279C65.6183 5.01308 66.7837 3.56089 68.0991 3.18985C69.7434 2.72605 71.0672 3.08137 71.5118 3.31384C71.9564 3.54631 77.3389 6.91443 74.1113 19.7383C70.8838 32.5621 69.2087 37.6408 63.6658 41.5472Z" fill="#F4AD17"/>
<path d="M78.9429 56.2727C78.3931 56.1085 73.8415 54.476 73.6031 53.9816C72.7514 52.2156 71.7158 52.2019 72.1419 48.9463C72.4829 46.3418 76.1933 42.6294 78.006 41.0987C78.9462 40.8252 80.9458 40.1116 81.4229 39.4451C82.0192 38.612 83.7277 37.7852 85.2516 37.2655C86.7755 36.7458 86.6477 36.4809 88.2758 35.2574C89.9038 34.0339 100.751 30.3092 102.208 32.8711C103.374 34.9206 104.142 35.3476 104.38 35.305C105.109 35.2064 106.838 35.2045 107.925 35.9855C109.283 36.9619 109.879 38.198 110.002 38.683C110.125 39.168 111.237 45.3822 100.442 50.8243C89.6466 56.2663 85.1199 58.1167 78.9429 56.2727Z" fill="#F4AD17"/>
<path d="M68.9684 77.4075C68.724 76.8555 66.9254 72.1217 67.1672 71.629C68.031 69.8689 67.3277 69.0059 70.2974 67.4088C72.6732 66.131 78.2844 66.971 80.793 67.5507C81.6665 68.1629 83.6326 69.3861 84.5096 69.3808C85.6057 69.3743 87.464 70.2893 88.9425 71.2359C90.421 72.1825 90.5506 71.9185 92.6794 72.5297C94.8082 73.141 105.353 79.8634 104.253 82.5998C103.373 84.789 103.552 85.6784 103.751 85.8494C104.335 86.3919 105.53 87.8179 105.638 89.1822C105.772 90.8875 105.168 92.1195 104.854 92.5114C104.54 92.9033 100.2 97.5407 88.2793 91.8891C76.3586 86.2376 71.7147 83.6094 68.9684 77.4075Z" fill="#F4AD17"/>
<path d="M42.1472 81.2863C44.6161 76.6834 49.0034 72.5742 50.9994 73.2588C53.0274 74.0602 55.015 75.2619 57.2159 78.005C58.9766 80.1994 59.0022 85.3717 58.7949 87.6835C58.283 88.4873 57.2969 90.2971 57.4471 91.1059C57.6349 92.1168 56.9611 93.8279 56.1908 95.1888C55.4205 96.5496 55.7247 96.6698 55.421 98.6313C55.1173 100.593 49.6544 110.299 46.5414 109.277C44.051 108.459 43.1277 108.622 42.9773 108.805C42.4924 109.342 41.1617 110.44 39.7179 110.535C37.9131 110.655 36.4935 110.094 36.0219 109.803C35.5504 109.513 29.8663 105.498 33.955 94.5201C38.0436 83.5425 39.0611 87.0399 42.1472 81.2863Z" fill="#F4AD17"/>
</g>
</svg>
