<svg width="303" height="231" viewBox="0 0 303 231" fill="none" xmlns="http://www.w3.org/2000/svg">
<path d="M141.927 161.989C156.476 176.405 152.084 191.055 148.069 196.578C143.612 202.043 137.752 206.819 126.206 210.142C116.97 212.801 98.4289 205.685 90.3131 201.795C87.8356 199.016 82.1273 193.298 79.1138 192.66C75.3469 191.862 69.7473 187.294 65.4776 182.901C61.2079 178.508 60.5392 179.328 53.7533 175.613C46.9674 171.898 16.4901 140.666 22.5873 131.988C27.465 125.045 27.6063 121.823 27.0672 121.08C25.5243 118.76 22.6355 112.915 23.424 108.097C24.4096 102.075 27.53 98.2501 28.9392 97.1243C30.3484 95.9985 49.1776 83.1448 85.2841 111.688C121.391 140.231 123.741 143.969 141.927 161.989Z" fill="#F4AD17"/>
<path d="M177.23 143.684C176.728 145.806 171.965 163.22 170.805 163.901C166.661 166.335 166.374 170.499 159.231 166.943C153.516 164.098 146.17 147.053 143.211 138.887C142.835 134.944 141.742 126.486 140.376 124.187C138.669 121.314 137.252 113.965 136.472 107.532C135.693 101.099 135.072 101.465 132.751 94.2147C130.43 86.9649 124.826 41.1636 130.892 36.7397C135.745 33.2006 136.886 30.3484 136.85 29.3647C136.811 26.373 137.236 19.4057 139.244 15.47C141.755 10.5502 144.655 8.84683 145.766 8.62526C146.876 8.40368 160.989 7.43591 170.429 53.9983C179.87 100.561 182.868 119.842 177.23 143.684Z" fill="#CF000C"/>
<path d="M243.113 170.15C241.335 171.037 225.966 177.508 224.202 176.538C217.9 173.071 215.242 175.689 208.686 164.167C203.442 154.95 204.141 133.523 205.146 123.961C206.889 120.669 210.284 113.243 209.931 109.882C209.488 105.681 211.88 98.6417 214.525 93.0604C217.169 87.4791 216.224 86.9592 217.482 78.8559C218.74 70.7527 237.503 30.9426 247.207 35.4013C254.97 38.9682 257.919 38.3621 258.423 37.6131C260.039 35.4241 264.419 30.9732 269.005 30.6818C274.739 30.3177 279.15 32.7442 280.599 33.9814C282.049 35.2185 299.443 52.2629 284.839 97.4397C270.235 142.617 263.099 160.178 243.113 170.15Z" fill="#F4AD17"/>
</svg>
