<svg width="33" height="16" viewBox="0 0 33 16" fill="none" xmlns="http://www.w3.org/2000/svg">
<path d="M1.61133 7C1.05904 7 0.611328 7.44772 0.611328 8C0.611328 8.55228 1.05904 9 1.61133 9V7ZM32.3099 8.70711C32.7004 8.31658 32.7004 7.68342 32.3099 7.29289L25.9459 0.928932C25.5554 0.538408 24.9222 0.538408 24.5317 0.928932C24.1412 1.31946 24.1412 1.95262 24.5317 2.34315L30.1886 8L24.5317 13.6569C24.1412 14.0474 24.1412 14.6805 24.5317 15.0711C24.9222 15.4616 25.5554 15.4616 25.9459 15.0711L32.3099 8.70711ZM1.61133 9H31.6028V7H1.61133V9Z" fill="#CF000C"/>
</svg>
