<svg width="63" height="63" viewBox="0 0 63 63" fill="none" xmlns="http://www.w3.org/2000/svg">
<path d="M22.2905 25.8116C23.6526 27.4913 22.9533 29.0646 22.4334 29.6412C21.8662 30.2084 21.1572 30.6905 19.8524 30.9738C18.8085 31.2004 16.902 30.2921 16.0792 29.8096C15.8521 29.4881 15.3187 28.8222 15.0009 28.7314C14.6037 28.6178 14.0646 28.0786 13.6673 27.5679C13.27 27.0572 13.1849 27.1423 12.504 26.6882C11.8231 26.2341 8.98529 22.6023 9.77932 21.6948C10.4145 20.9687 10.4787 20.617 10.4314 20.5319C10.299 20.2671 10.0737 19.607 10.2325 19.0851C10.4308 18.4327 10.8279 18.0357 10.998 17.9223C11.1682 17.8088 13.4089 16.533 16.899 19.9097C20.3892 23.2864 20.5879 23.7119 22.2905 25.8116Z" fill="#F4AD17"/>
<path d="M30.9728 26.0701C30.8026 26.2403 29.2855 27.6015 29.0443 27.6014C28.1825 27.6011 27.9788 27.9733 26.7721 27.2508C25.8067 26.6729 25.0477 24.6828 24.7889 23.7601C24.8607 23.3723 24.961 22.5245 24.7885 22.2356C24.573 21.8745 24.5727 21.1122 24.6587 20.4704C24.7447 19.8285 24.6155 19.8285 24.4429 19.0261C24.2703 18.2237 24.8723 13.6505 26.1649 13.5706C27.1991 13.5067 27.515 13.3035 27.5437 13.2099C27.6442 12.9291 27.9744 12.3034 28.4914 12.0468C29.1376 11.726 29.7409 11.7262 29.9564 11.7664C30.1718 11.8066 32.8436 12.4893 32.9312 17.3436C33.0188 22.1978 32.8847 24.158 30.9728 26.0701Z" fill="#CF000C"/>
<path d="M35.4162 30.8615C35.1695 30.8185 33.1228 30.3472 33.009 30.1501C32.6024 29.4462 32.1425 29.4898 32.2792 28.0969C32.3885 26.9826 33.9756 25.2407 34.7555 24.509C35.1685 24.3489 36.0446 23.9527 36.2456 23.649C36.4969 23.2693 37.2419 22.8393 37.9099 22.5476C38.578 22.2559 38.517 22.1503 39.2199 21.5569C39.9228 20.9635 44.6775 18.8762 45.3658 19.8868C45.9163 20.6953 46.2641 20.8388 46.3691 20.8094C46.691 20.7331 47.4586 20.6499 47.9535 20.9274C48.5721 21.2743 48.8566 21.767 48.9191 21.9657C48.9815 22.1643 49.5751 24.7311 44.8712 27.5399C40.1672 30.3487 38.1878 31.3446 35.4162 30.8615Z" fill="#F4AD17"/>
<path d="M35.588 39.6602C35.4747 39.4507 34.6166 37.6362 34.6914 37.4214C34.9586 36.654 34.6586 36.346 35.7373 35.5174C36.6003 34.8546 38.7772 34.8565 39.7577 34.9403C40.1138 35.1363 40.91 35.5143 41.2452 35.4591C41.6644 35.3902 42.4082 35.6496 43.0078 35.9448C43.6074 36.2399 43.6475 36.1248 44.4838 36.2444C45.3202 36.364 49.5958 38.4575 49.2733 39.6358C49.0152 40.5785 49.1156 40.929 49.198 40.9864C49.4409 41.1715 49.9491 41.6786 50.0393 42.2264C50.152 42.9111 49.965 43.4483 49.859 43.6265C49.7531 43.8046 48.2592 45.9513 43.4958 44.376C38.7323 42.8008 36.8613 42.0139 35.588 39.6602Z" fill="#CF000C"/>
</svg>
