<svg width="32" height="32" viewBox="0 0 32 32" fill="none" xmlns="http://www.w3.org/2000/svg">
<path fill-rule="evenodd" clip-rule="evenodd" d="M15.9998 26.6667C21.1545 26.6667 25.3332 22.488 25.3332 17.3333C25.3332 14.7765 24.3052 12.46 22.6398 10.7743L24.2494 9.16471L22.8352 7.75049L21.082 9.50371C19.8832 8.72397 18.4942 8.21211 16.9997 8.05293V6H19.9998V4H11.9998V6H14.9997V8.05295C13.5054 8.21213 12.1165 8.72397 10.9178 9.50364L9.16453 7.75041L7.75032 9.16463L9.35989 10.7742C7.69458 12.4599 6.6665 14.7765 6.6665 17.3333C6.6665 22.488 10.8452 26.6667 15.9998 26.6667ZM15.9998 10C11.9497 10 8.6665 13.2832 8.6665 17.3333C8.6665 21.3835 11.9497 24.6667 15.9998 24.6667C20.05 24.6667 23.3332 21.3835 23.3332 17.3333C23.3332 13.2832 20.05 10 15.9998 10Z" fill="#CF000C"/>
<path fill-rule="evenodd" clip-rule="evenodd" d="M16.6665 16.6666V11.9998H14.6665V18.6666H19.9998V16.6666H16.6665Z" fill="#CF000C"/>
</svg>
