<svg width="35" height="35" viewBox="0 0 35 35" fill="none" xmlns="http://www.w3.org/2000/svg">
<path d="M10.1319 16.84C11.7364 17.005 12.1974 18.1856 12.2274 18.7553C12.2274 19.3446 12.1076 19.9633 11.5688 20.7884C11.1377 21.4484 9.65291 21.967 8.96439 22.1438C8.67501 22.0947 8.04236 22.0259 7.82683 22.1438C7.5574 22.2911 6.98862 22.2911 6.50965 22.2322C6.03068 22.1732 6.03068 22.2616 5.43197 22.3795C4.83325 22.4974 1.42057 22.0849 1.3607 21.2009C1.31281 20.4937 1.16113 20.2776 1.09128 20.258C0.881732 20.1892 0.414735 19.9633 0.223147 19.6097C-0.0163395 19.1678 -0.0163395 18.7553 0.0135962 18.6079C0.043532 18.4606 0.55244 16.6337 4.17467 16.5748C7.79689 16.5159 8.12619 16.6337 10.1319 16.84Z" fill="#F4AD17"/>
<path d="M14.848 12.4639C14.848 12.6407 14.7658 14.136 14.6385 14.2613C14.1837 14.7089 14.2726 15.008 13.255 15.2596C12.4409 15.4609 10.9908 14.8213 10.3675 14.4764C10.2008 14.2377 9.80649 13.7451 9.56314 13.6846C9.25894 13.609 8.85676 13.2131 8.56354 12.835C8.27033 12.4569 8.20212 12.524 7.68782 12.1969C7.17352 11.8697 5.0787 9.18113 5.71846 8.46808C6.23027 7.89764 6.28975 7.62796 6.25552 7.56443C6.16039 7.36636 6.00449 6.86976 6.14185 6.46786C6.31356 5.96549 6.63186 5.65219 6.76671 5.56112C6.90157 5.47006 8.67107 4.43675 11.2778 6.91306C13.8846 9.38937 14.8479 10.4773 14.848 12.4639Z" fill="#CF000C"/>
<path d="M19.7196 12.6447C19.5668 12.7505 18.2385 13.5689 18.0745 13.5257C17.4887 13.3712 17.2691 13.6328 16.6065 12.8382C16.0764 12.2025 15.9947 10.473 16.0201 9.68774C16.1535 9.39004 16.4067 8.7291 16.3525 8.46688C16.2848 8.13911 16.4509 7.52868 16.6495 7.03009C16.848 6.53149 16.7601 6.50832 16.8179 5.83487C16.8756 5.16141 18.2827 1.60699 19.1788 1.77447C19.8957 1.90845 20.1548 1.80232 20.1948 1.7325C20.3243 1.52563 20.6853 1.08366 21.0927 0.970739C21.602 0.829583 22.012 0.937723 22.1497 1.00847C22.2874 1.07923 23.9546 2.10431 22.9549 6.00721C21.9552 9.91012 21.4364 11.4558 19.7196 12.6447Z" fill="#F4AD17"/>
<path d="M24.4513 17.1264C24.281 17.0765 22.8713 16.5796 22.7974 16.4291C22.5336 15.8917 22.2128 15.8875 22.3448 14.8967C22.4504 14.104 23.5997 12.9741 24.1611 12.5083C24.4524 12.425 25.0717 12.2078 25.2195 12.005C25.4042 11.7514 25.9334 11.4998 26.4054 11.3416C26.8774 11.1835 26.8378 11.1028 27.342 10.7305C27.8463 10.3581 31.206 9.2245 31.6574 10.0042C32.0185 10.628 32.2564 10.7579 32.3301 10.7449C32.5559 10.7149 33.0915 10.7144 33.428 10.9521C33.8487 11.2492 34.0333 11.6254 34.0714 11.773C34.1095 11.9207 34.4538 13.8119 31.1102 15.4682C27.7666 17.1245 26.3646 17.6877 24.4513 17.1264Z" fill="#CF000C"/>
<path d="M21.3617 23.5588C21.286 23.3907 20.7289 21.95 20.8038 21.8001C21.0713 21.2644 20.8535 21.0018 21.7733 20.5157C22.5092 20.1268 24.2471 20.3824 25.0241 20.5589C25.2947 20.7452 25.9037 21.1175 26.1753 21.1159C26.5148 21.1139 27.0904 21.3924 27.5483 21.6805C28.0063 21.9685 28.0464 21.8882 28.7058 22.0742C29.3651 22.2602 32.6313 24.3062 32.2906 25.139C32.018 25.8053 32.0734 26.076 32.1352 26.128C32.316 26.2931 32.686 26.7271 32.7194 27.1423C32.7611 27.6614 32.5738 28.0363 32.4766 28.1556C32.3795 28.2749 31.0351 29.6862 27.3429 27.9662C23.6507 26.2462 22.2123 25.4463 21.3617 23.5588Z" fill="#F4AD17"/>
<path d="M13.0546 24.7393C13.8193 23.3384 15.1782 22.0877 15.7964 22.2961C16.4246 22.54 17.0402 22.9057 17.7219 23.7406C18.2673 24.4085 18.2752 25.9826 18.211 26.6862C18.0524 26.9309 17.747 27.4817 17.7935 27.7278C17.8517 28.0355 17.643 28.5563 17.4044 28.9704C17.1658 29.3846 17.26 29.4212 17.166 30.0182C17.0719 30.6152 15.3799 33.5692 14.4157 33.2581C13.6443 33.0093 13.3583 33.0587 13.3117 33.1146C13.1615 33.278 12.7494 33.6121 12.3022 33.6411C11.7432 33.6775 11.3035 33.5068 11.1574 33.4184C11.0113 33.33 9.2508 32.1079 10.5172 28.7669C11.7836 25.4259 12.0987 26.4904 13.0546 24.7393Z" fill="#CF000C"/>
</svg>
