<svg width="100" height="82" viewBox="0 0 100 82" fill="none" xmlns="http://www.w3.org/2000/svg">
<path d="M98.4376 0H1.56245C0.699592 0 0 0.699592 0 1.56245V17.1876C0 18.0504 0.699592 18.75 1.56245 18.75H10.9373V78.1251H9.37469C8.51184 78.1251 7.81224 78.8247 7.81224 79.6876C7.81224 80.5504 8.51184 81.25 9.37469 81.25H48.4371V90.8939C46.6186 91.5388 45.3122 93.2757 45.3122 95.3125C45.3125 97.8974 47.4153 100 50 100C52.5847 100 54.6876 97.8974 54.6876 95.3125C54.6876 93.2755 53.3812 91.5388 51.5627 90.8939V81.25H90.6251C91.488 81.25 92.1876 80.5504 92.1876 79.6876C92.1876 78.8247 91.488 78.1251 90.6251 78.1251H89.0627V18.75H98.4376C99.3004 18.75 100 18.0504 100 17.1876V1.56245C100 0.699592 99.3004 0 98.4376 0ZM50 96.8751C49.1386 96.8751 48.4375 96.1741 48.4375 95.3127C48.4375 94.4512 49.1384 93.7502 50 93.7502C50.8614 93.7502 51.5622 94.4512 51.5622 95.3127C51.5622 96.1741 50.8614 96.8751 50 96.8751ZM85.9373 78.1251H14.0627V10.9373H85.9373V78.1251ZM96.8749 15.6249H89.0625V10.9373H90.6249C91.4878 10.9373 92.1873 10.2378 92.1873 9.3749C92.1873 8.51204 91.4878 7.81245 90.6249 7.81245H9.3749C8.51204 7.81245 7.81245 8.51204 7.81245 9.3749C7.81245 10.2378 8.51204 10.9373 9.3749 10.9373H10.9376V15.6249H3.1251V3.1249H96.8749V15.6249Z" fill="#F4AD17"/>
<path d="M20.3124 54.6874H79.6875C80.5504 54.6874 81.25 53.9879 81.25 53.125V17.1874C81.2502 16.3246 80.5504 15.625 79.6875 15.625H20.3124C19.4496 15.625 18.7498 16.3246 18.7498 17.1874V53.125C18.7498 53.9879 19.4493 54.6874 20.3124 54.6874ZM21.8751 18.7499H78.1251V51.5623H21.8751V18.7499Z" fill="#F4AD17"/>
<path d="M26.5624 26.5624H31.25C32.1128 26.5624 32.8126 25.8628 32.8126 24.9999C32.8126 24.1371 32.113 23.4375 31.25 23.4375H26.5624C25.6996 23.4375 24.9998 24.1371 24.9998 24.9999C24.9998 25.8628 25.6996 26.5624 26.5624 26.5624Z" fill="#F4AD17"/>
<path d="M26.5624 32.8124H31.25C32.1128 32.8124 32.8126 32.1128 32.8126 31.25C32.8126 30.3871 32.113 29.6875 31.25 29.6875H26.5624C25.6996 29.6875 24.9998 30.3871 24.9998 31.25C24.9998 32.1128 25.6996 32.8124 26.5624 32.8124Z" fill="#F4AD17"/>
<path d="M73.4375 43.7502H36.5847L48.4376 31.8973L55.9267 39.3863C56.5369 39.9965 57.5261 39.9963 58.1363 39.3863L72.98 24.5424C73.5902 23.9322 73.5902 22.9429 72.98 22.3327C72.3698 21.7224 71.3806 21.7224 70.7704 22.3327L57.0314 36.0716L49.5424 28.5827C48.9322 27.9724 47.9431 27.9727 47.3329 28.5827L32.1655 43.7502H26.5627C25.6998 43.7502 25 44.4498 25 45.3127C24.9998 46.1755 25.6996 46.8751 26.5625 46.8751H73.4375C74.3004 46.8751 75.0002 46.1755 75.0002 45.3127C75.0002 44.4498 74.3006 43.7502 73.4375 43.7502Z" fill="#F4AD17"/>
<path d="M20.3124 64.0624H62.5C63.3628 64.0624 64.0624 63.3628 64.0624 62.5C64.0624 61.6371 63.3628 60.9375 62.5 60.9375H20.3124C19.4496 60.9375 18.7498 61.6371 18.7498 62.5C18.7498 63.363 19.4496 64.0624 20.3124 64.0624Z" fill="#F4AD17"/>
<path d="M20.3124 71.8749H35.9375C36.8004 71.8749 37.5002 71.1753 37.5002 70.3125C37.5002 69.4496 36.8004 68.75 35.9375 68.75H20.3124C19.4496 68.75 18.7498 69.4496 18.7498 70.3125C18.7498 71.1753 19.4493 71.8749 20.3124 71.8749Z" fill="#F4AD17"/>
<path d="M79.6877 68.75H42.1875C41.3246 68.75 40.625 69.4496 40.625 70.3125C40.625 71.1753 41.3246 71.8749 42.1875 71.8749H79.6877C80.5505 71.8749 81.2501 71.1753 81.2501 70.3125C81.2503 69.4496 80.5505 68.75 79.6877 68.75Z" fill="#F4AD17"/>
<path d="M79.6875 60.9375H68.75C67.8871 60.9375 67.1875 61.6371 67.1875 62.5C67.1875 63.3628 67.8871 64.0624 68.75 64.0624H79.6875C80.5504 64.0624 81.25 63.3628 81.25 62.5C81.2502 61.6371 80.5504 60.9375 79.6875 60.9375Z" fill="#F4AD17"/>
</svg>
