<svg width="23" height="19" viewBox="0 0 23 19" fill="none" xmlns="http://www.w3.org/2000/svg">
<path d="M21.5625 18.125C21.5625 18.125 23 18.125 23 16.6875C23 15.25 21.5625 10.9375 15.8125 10.9375C10.0625 10.9375 8.625 15.25 8.625 16.6875C8.625 18.125 10.0625 18.125 10.0625 18.125H21.5625ZM10.0941 16.6875C10.0835 16.686 10.073 16.6841 10.0625 16.6818C10.0639 16.3023 10.3026 15.2011 11.155 14.2093C11.9485 13.2792 13.3429 12.375 15.8125 12.375C18.2807 12.375 19.6751 13.2806 20.47 14.2093C21.3224 15.2011 21.5596 16.3037 21.5625 16.6818L21.551 16.6846C21.5443 16.6858 21.5376 16.6867 21.5309 16.6875H10.0941ZM15.8125 8.0625C16.575 8.0625 17.3063 7.7596 17.8454 7.22043C18.3846 6.68126 18.6875 5.95 18.6875 5.1875C18.6875 4.425 18.3846 3.69373 17.8454 3.15457C17.3063 2.6154 16.575 2.3125 15.8125 2.3125C15.05 2.3125 14.3187 2.6154 13.7796 3.15457C13.2404 3.69373 12.9375 4.425 12.9375 5.1875C12.9375 5.95 13.2404 6.68126 13.7796 7.22043C14.3187 7.7596 15.05 8.0625 15.8125 8.0625ZM20.125 5.1875C20.125 5.75383 20.0135 6.31461 19.7967 6.83782C19.58 7.36104 19.2624 7.83645 18.8619 8.2369C18.4614 8.63735 17.986 8.95501 17.4628 9.17173C16.9396 9.38845 16.3788 9.5 15.8125 9.5C15.2462 9.5 14.6854 9.38845 14.1622 9.17173C13.639 8.95501 13.1636 8.63735 12.7631 8.2369C12.3626 7.83645 12.045 7.36104 11.8283 6.83782C11.6115 6.31461 11.5 5.75383 11.5 5.1875C11.5 4.04375 11.9544 2.94685 12.7631 2.1381C13.5719 1.32935 14.6688 0.875 15.8125 0.875C16.9562 0.875 18.0531 1.32935 18.8619 2.1381C19.6706 2.94685 20.125 4.04375 20.125 5.1875ZM9.9705 11.34C9.39547 11.1589 8.80273 11.0399 8.20237 10.9849C7.86504 10.9529 7.52636 10.937 7.1875 10.9375C1.4375 10.9375 0 15.25 0 16.6875C0 17.6463 0.478687 18.125 1.4375 18.125H7.498C7.2849 17.6762 7.17862 17.1842 7.1875 16.6875C7.1875 15.2356 7.72944 13.7521 8.75438 12.513C9.10369 12.0904 9.5105 11.6951 9.9705 11.34ZM7.0725 12.375C6.22172 13.6533 5.76213 15.152 5.75 16.6875H1.4375C1.4375 16.3138 1.67325 15.2069 2.53 14.2093C3.31344 13.295 4.67475 12.4038 7.0725 12.3764V12.375ZM2.15625 5.90625C2.15625 4.7625 2.6106 3.6656 3.41935 2.85685C4.2281 2.0481 5.325 1.59375 6.46875 1.59375C7.6125 1.59375 8.7094 2.0481 9.51815 2.85685C10.3269 3.6656 10.7812 4.7625 10.7812 5.90625C10.7812 7.05 10.3269 8.1469 9.51815 8.95565C8.7094 9.7644 7.6125 10.2188 6.46875 10.2188C5.325 10.2188 4.2281 9.7644 3.41935 8.95565C2.6106 8.1469 2.15625 7.05 2.15625 5.90625ZM6.46875 3.03125C5.70625 3.03125 4.97499 3.33415 4.43582 3.87332C3.89665 4.41248 3.59375 5.14375 3.59375 5.90625C3.59375 6.66875 3.89665 7.40001 4.43582 7.93918C4.97499 8.47835 5.70625 8.78125 6.46875 8.78125C7.23125 8.78125 7.96251 8.47835 8.50168 7.93918C9.04085 7.40001 9.34375 6.66875 9.34375 5.90625C9.34375 5.14375 9.04085 4.41248 8.50168 3.87332C7.96251 3.33415 7.23125 3.03125 6.46875 3.03125Z" fill="#CF000C"/>
</svg>
