<svg width="72" height="100" viewBox="0 0 72 100" fill="none" xmlns="http://www.w3.org/2000/svg">
<path d="M70.384 14.0626L65.7225 14.0365C65.7194 14.0365 65.7165 14.0365 65.7135 14.0365C65.7047 14.0365 65.6963 14.0377 65.6877 14.0377V10.9374C65.6877 10.0744 64.9883 9.37474 64.1253 9.37474H59.4379V6.2501C59.4379 5.38715 58.7384 4.68768 57.8754 4.68768H18.9771C18.7783 2.06962 16.5862 0 13.9184 0C11.2503 0 9.05842 2.06962 8.85963 4.68747H1.62492C0.761967 4.68747 0.0625 5.38694 0.0625 6.2499V85.9378C0.0625 86.8007 0.761967 87.5002 1.62492 87.5002H4.74977V92.1877C4.74977 93.0506 5.44924 93.7501 6.31219 93.7501H9.43724V98.4376C9.43724 99.3005 10.1367 100 10.9997 100H70.375C71.238 100 71.9374 99.3005 71.9374 98.4376V15.6251C71.9378 14.7656 71.2437 14.0673 70.384 14.0626ZM13.9184 3.12505C14.8609 3.12505 15.6492 3.79737 15.8294 4.68747H12.0073C12.1874 3.79737 12.9756 3.12505 13.9184 3.12505ZM3.18755 84.3754V7.81253H8.8435V19.1246C8.8435 21.9231 11.1201 24.1997 13.9184 24.1997C16.7169 24.1997 18.9932 21.9229 18.9932 19.1246V12.0998C18.9932 11.2368 18.2938 10.5373 17.4306 10.5373C16.5676 10.5373 15.8682 11.2368 15.8682 12.0998V19.1246C15.8682 20.1999 14.9934 21.0747 13.9182 21.0747C12.8429 21.0747 11.9683 20.1999 11.9683 19.1246V7.81253H56.3124V84.3754H3.18755ZM7.87462 90.6255V87.5004H7.87482H57.875C58.738 87.5004 59.4374 86.8009 59.4374 85.938V12.5H62.5625V90.6255H7.87462ZM12.5625 96.8756V93.7505H64.1251C64.9881 93.7505 65.6875 93.051 65.6875 92.1881V17.1607C65.6935 17.1609 65.699 17.1618 65.7049 17.1618L68.8126 17.1791V96.8756H12.5625Z" fill="#F4AD17"/>
<path d="M40.6877 34.3752H18.8121C17.9492 34.3752 17.2495 35.0747 17.2495 35.9379C17.2497 36.8006 17.9492 37.5003 18.8121 37.5003H40.6877C41.5507 37.5003 42.2501 36.8008 42.2501 35.9379C42.2501 35.0749 41.5507 34.3752 40.6877 34.3752Z" fill="#F4AD17"/>
<path d="M40.6877 40.6252H18.8121C17.9492 40.6252 17.2495 41.3247 17.2495 42.1879C17.2497 43.0506 17.9492 43.7503 18.8121 43.7503H40.6877C41.5507 43.7503 42.2501 43.0508 42.2501 42.1879C42.2501 41.3249 41.5507 40.6252 40.6877 40.6252Z" fill="#F4AD17"/>
<path d="M34.4376 46.8752H25.0624C24.1995 46.8752 23.5 47.5747 23.5 48.4379C23.5 49.3008 24.1995 50.0003 25.0624 50.0003H34.4376C35.3005 50.0003 36 49.3008 36 48.4379C36 47.5749 35.3007 46.8752 34.4376 46.8752Z" fill="#F4AD17"/>
</svg>
