<svg width="72" height="100" viewBox="0 0 72 100" fill="none" xmlns="http://www.w3.org/2000/svg">
<path d="M61.013 14.0699V17.1449H68.8554V96.9254H7.86045C5.26006 96.9254 3.14482 94.8098 3.14482 92.2098V15.1434C4.63428 16.3916 6.55166 17.1447 8.64209 17.1447H42.2534V14.0699H8.64209C5.61084 14.0699 3.14482 11.6039 3.14482 8.57266C3.14482 5.54141 5.61084 3.075 8.64209 3.075H65.703V0H8.64209C4.179 0 0.475683 3.40937 0.0795889 7.7709L0.0698242 92.2094C0.0698242 96.5053 3.56475 100 7.86045 100H71.9304V14.0699H61.013Z" fill="#F4AD17"/>
<path d="M64.1378 4.68994H6.29639V7.76494H64.1378V4.68994Z" fill="#F4AD17"/>
<path d="M67.2661 9.37964H6.29639V12.4546H67.2661V9.37964Z" fill="#F4AD17"/>
<path d="M59.4235 14.0698H43.8423V58.7409L51.6329 54.8456L59.4235 58.7409V14.0698ZM56.3487 53.7655L51.6331 51.4077L46.9175 53.7655V17.1446H56.3489V53.7655H56.3487Z" fill="#F4AD17"/>
<path d="M10.9622 18.7346H7.88721V95.3374H10.9622V18.7346Z" fill="#F4AD17"/>
<path d="M31.3103 21.8872H15.6772V24.9622H31.3103V21.8872Z" fill="#F4AD17"/>
<path d="M50.0694 89.1094H46.9429V92.1844H50.0694V89.1094Z" fill="#F4AD17"/>
<path d="M56.3243 89.1094H53.1978V92.1844H56.3243V89.1094Z" fill="#F4AD17"/>
<path d="M62.5763 89.1094H59.4497V92.1844H62.5763V89.1094Z" fill="#F4AD17"/>
<path d="M25.0569 28.1396H15.6772V31.2146H25.0569V28.1396Z" fill="#F4AD17"/>
<path d="M25.0569 34.3921H15.6772V37.4671H25.0569V34.3921Z" fill="#F4AD17"/>
</svg>
