<svg width="24" height="26" viewBox="0 0 24 26" fill="none" xmlns="http://www.w3.org/2000/svg">
<path d="M23.933 7.79632C23.8754 6.46273 23.669 5.55028 23.3761 4.75313C23.0689 3.93092 22.6608 3.22903 21.9934 2.53717C21.3261 1.84531 20.6588 1.40914 19.8714 1.09329C19.1081 0.782454 18.2343 0.571888 16.9572 0.511726C15.6754 0.451564 15.2673 0.436523 12.0122 0.436523C8.7524 0.436523 8.34431 0.451564 7.06726 0.511726C5.7902 0.571888 4.91643 0.787467 4.15308 1.09329C3.36092 1.41415 2.68878 1.8403 2.02625 2.53717C1.36372 3.23405 0.946035 3.93092 0.643574 4.75313C0.350716 5.55028 0.144274 6.46273 0.0866628 7.79632C0.0290513 9.13492 0.0146484 9.56106 0.0146484 12.9602C0.0146484 16.3644 0.0290513 16.7905 0.0866628 18.1241C0.144274 19.4577 0.350716 20.3701 0.643574 21.1673C0.950836 21.9895 1.35892 22.6914 2.02625 23.3832C2.68878 24.0801 3.36092 24.5113 4.14827 24.8271C4.91163 25.138 5.7854 25.3485 7.06246 25.4087C8.34431 25.4688 8.7524 25.4839 12.0074 25.4839C15.2673 25.4839 15.6754 25.4688 16.9524 25.4087C18.2295 25.3485 19.1033 25.1329 19.8666 24.8271C20.654 24.5063 21.3261 24.0801 21.9886 23.3832C22.6512 22.6864 23.0689 21.9895 23.3713 21.1673C23.669 20.3701 23.8706 19.4577 23.9282 18.1241C23.9858 16.7855 24.0002 16.3593 24.0002 12.9602C24.0002 9.56106 23.9906 9.1299 23.933 7.79632ZM21.7774 18.0238C21.7246 19.2471 21.5278 19.9139 21.3645 20.3501C21.1485 20.9316 20.8844 21.3528 20.4619 21.794C20.0395 22.2352 19.641 22.5009 19.0793 22.7365C18.6568 22.907 18.0182 23.1125 16.8516 23.1677C15.589 23.2278 15.2097 23.2429 12.0026 23.2429C8.7956 23.2429 8.41633 23.2278 7.15368 23.1677C5.98224 23.1125 5.34371 22.907 4.92603 22.7365C4.36912 22.5109 3.96584 22.2352 3.54335 21.794C3.12087 21.3528 2.86642 20.9367 2.64077 20.3501C2.47754 19.9089 2.2807 19.2421 2.22789 18.0238C2.17028 16.7053 2.15588 16.3092 2.15588 12.9602C2.15588 9.6112 2.17028 9.21513 2.22789 7.89659C2.2807 6.6733 2.47754 6.0065 2.64077 5.57033C2.85682 4.98877 3.12087 4.56763 3.54335 4.12645C3.96584 3.68526 4.36432 3.41955 4.92603 3.18391C5.34852 3.01345 5.98704 2.8079 7.15368 2.75275C8.41633 2.69259 8.7956 2.67755 12.0026 2.67755C15.2097 2.67755 15.589 2.69259 16.8516 2.75275C18.0231 2.8079 18.6616 3.01345 19.0793 3.18391C19.6362 3.40952 20.0395 3.68526 20.4619 4.12645C20.8844 4.56763 21.1389 4.98375 21.3645 5.57033C21.5278 6.01152 21.7246 6.67831 21.7774 7.89659C21.835 9.21513 21.8494 9.6112 21.8494 12.9602C21.8494 16.3092 21.8302 16.7053 21.7774 18.0238Z" fill="#F4AD17"/>
<path d="M12.0023 6.52295C8.59364 6.52295 5.83789 9.4057 5.83789 12.9603C5.83789 16.5198 8.59844 19.3976 12.0023 19.3976C15.4062 19.3976 18.1668 16.5098 18.1668 12.9603C18.1668 9.40069 15.411 6.52295 12.0023 6.52295ZM12.0023 17.1365C9.79388 17.1365 8.00312 15.2665 8.00312 12.9603C8.00312 10.6541 9.79388 8.78403 12.0023 8.78403C14.2108 8.78403 16.0015 10.6541 16.0015 12.9603C16.0015 15.2665 14.2108 17.1365 12.0023 17.1365Z" fill="#F4AD17"/>
<path d="M18.4071 7.77616C19.2025 7.77616 19.8474 7.10277 19.8474 6.27211C19.8474 5.44145 19.2025 4.76807 18.4071 4.76807C17.6116 4.76807 16.9668 5.44145 16.9668 6.27211C16.9668 7.10277 17.6116 7.77616 18.4071 7.77616Z" fill="#F4AD17"/>
<path d="M0 12.9602C0 16.3644 0.0144029 16.7905 0.0720144 18.1241C0.129626 19.4577 0.336067 20.3701 0.628926 21.1673C0.936187 21.9895 1.34427 22.6914 2.0116 23.3832C2.67413 24.0751 3.34627 24.5113 4.13363 24.8271C4.89698 25.138 5.77075 25.3485 7.04781 25.4087C8.32967 25.4688 8.73775 25.4839 11.9928 25.4839C15.2527 25.4839 15.6607 25.4688 16.9378 25.4087C18.2148 25.3485 19.0886 25.1329 19.852 24.8271C20.6393 24.5063 21.3115 24.0801 21.974 23.3832C22.6365 22.6914 23.0542 21.9895 23.3567 21.1673C23.6543 20.3701 23.856 19.4577 23.9136 18.1241C23.9712 16.7855 23.9856 16.3593 23.9856 12.9602C23.9856 9.55605 23.9712 9.1299 23.9136 7.79632C23.856 6.46273 23.6495 5.55028 23.3567 4.75313C23.0494 3.93092 22.6413 3.22903 21.974 2.53717C21.3163 1.8403 20.6441 1.40914 19.8568 1.09329C19.0934 0.782454 18.2196 0.571888 16.9426 0.511726C15.6607 0.451564 15.2527 0.436523 11.9976 0.436523C8.73775 0.436523 8.32967 0.451564 7.05261 0.511726C5.77555 0.571888 4.90178 0.787467 4.13843 1.09329C3.35107 1.41415 2.67894 1.8403 2.0164 2.53717C1.35387 3.23405 0.936187 3.93092 0.633727 4.75313C0.336067 5.55028 0.129626 6.46273 0.0720144 7.79632C0.0144029 9.1299 0 9.55605 0 12.9602ZM2.16523 12.9602C2.16523 9.61621 2.17964 9.21513 2.23725 7.89659C2.29006 6.6733 2.4869 6.0065 2.65013 5.57033C2.86617 4.98877 3.13023 4.56763 3.55271 4.12645C3.97519 3.68526 4.37367 3.41955 4.93539 3.18391C5.35787 3.01345 5.9964 2.8079 7.16303 2.75275C8.42568 2.69259 8.80496 2.67755 12.012 2.67755C15.219 2.67755 15.5983 2.69259 16.861 2.75275C18.0324 2.8079 18.6709 3.01345 19.0886 3.18391C19.6455 3.40952 20.0488 3.68526 20.4713 4.12645C20.8938 4.56763 21.1482 4.98375 21.3739 5.57033C21.5371 6.01152 21.7339 6.67831 21.7868 7.89659C21.8444 9.21513 21.8588 9.6112 21.8588 12.9602C21.8588 16.3092 21.8444 16.7053 21.7868 18.0238C21.7339 19.2471 21.5371 19.9139 21.3739 20.3501C21.1578 20.9316 20.8938 21.3528 20.4713 21.794C20.0488 22.2352 19.6503 22.5009 19.0886 22.7365C18.6661 22.907 18.0276 23.1125 16.861 23.1677C15.5983 23.2278 15.219 23.2429 12.012 23.2429C8.80496 23.2429 8.42568 23.2278 7.16303 23.1677C5.9916 23.1125 5.35307 22.907 4.93539 22.7365C4.37848 22.5109 3.97519 22.2352 3.55271 21.794C3.13023 21.3528 2.87578 20.9367 2.65013 20.3501C2.4869 19.9089 2.29006 19.2421 2.23725 18.0238C2.17483 16.7053 2.16523 16.3042 2.16523 12.9602Z" fill="#F4AD17"/>
</svg>
