<svg width="16" height="16" viewBox="0 0 16 16" fill="none" xmlns="http://www.w3.org/2000/svg">
<path d="M15.8287 12.1337C15.2331 11.0078 13.1648 9.78689 13.0737 9.7335C12.8079 9.58223 12.5306 9.50214 12.2711 9.50214C11.8852 9.50214 11.5693 9.67893 11.378 10.0005C11.0754 10.3623 10.7002 10.7853 10.6091 10.8509C9.90438 11.329 9.35268 11.2747 8.74225 10.6643L5.33533 7.25707C4.72875 6.65049 4.67299 6.09196 5.14787 5.39106C5.21431 5.29941 5.63728 4.92389 5.99915 4.62105C6.22992 4.48372 6.38831 4.27965 6.45772 4.0293C6.54997 3.6962 6.48204 3.30438 6.26433 2.92263C6.21301 2.83484 4.99155 0.766243 3.8662 0.170937C3.65619 0.0597063 3.41949 0.000976562 3.1822 0.000976562C2.79126 0.000976562 2.42346 0.153437 2.14702 0.429585L1.39421 1.1821C0.203595 2.37241 -0.227386 3.72171 0.112534 5.19233C0.396098 6.41794 1.22247 7.72216 2.5691 9.06849L6.93082 13.4302C8.63517 15.1346 10.26 15.9989 11.7603 15.9989C11.7603 15.9989 11.7603 15.9989 11.7606 15.9989C12.864 15.9989 13.8927 15.53 14.8172 14.6054L15.5697 13.8529C16.0271 13.3958 16.1309 12.7047 15.8287 12.1337Z" fill="#F4AD17"/>
</svg>
