<svg width="26" height="48" viewBox="0 0 26 48" fill="none" xmlns="http://www.w3.org/2000/svg">
<path d="M17.7691 0.0332031L8.2308 4.76236V8.35808C11.4102 6.78163 14.5896 5.20487 17.7691 3.62852V0.0332031ZM18.4323 5.34005L8.74328 10.144L15.1454 18.0797L24.8341 13.2755L18.4323 5.34005ZM7.06598 10.976L3.64007 12.6745H8.43626L7.06598 10.976ZM4.81951 14.5024L12.0929 17.2073L9.91095 14.5024H4.81951ZM0.65332 14.9034V43.011L13.9804 47.9668V19.8594L0.65332 14.9034ZM25.3466 15.0618C22.1671 16.6382 18.9878 18.2147 15.8083 19.7913V47.8086L25.3466 43.0791V15.0618ZM4.92585 25.6724C4.92585 25.6724 3.37195 27.2044 3.9215 28.1305C4.34471 28.8434 6.1446 28.6807 6.1446 28.6807L7.7238 29.0715C7.7238 29.0715 9.52348 30.1252 9.94669 29.6216C10.4961 28.9675 8.94255 26.6663 8.94255 26.6663C8.94255 26.6663 12.5897 30.0679 11.9551 31.4721C11.6359 32.1784 9.44457 31.2571 9.44457 31.2571C9.44457 31.2571 10.0027 31.9893 9.94669 32.3285C9.84503 32.9441 8.54777 33.3355 8.54777 33.3355C8.54777 33.3355 8.66061 35.4927 7.9384 35.8917C7.41566 36.1804 6.45274 35.9421 5.93 35.3945C5.20779 34.6381 5.32062 32.537 5.32062 32.537C5.32062 32.537 4.02316 31.5034 3.9215 30.8373C3.86564 30.4706 4.42362 30.0143 4.42362 30.0143C4.42362 30.0143 2.23241 29.8511 1.91331 28.9868C1.27884 27.2685 4.92585 25.6724 4.92585 25.6724V25.6724Z" fill="#CF000C"/>
</svg>
