<svg width="18" height="20" viewBox="0 0 18 20" fill="none" xmlns="http://www.w3.org/2000/svg">
<path fill-rule="evenodd" clip-rule="evenodd" d="M2.39458 11.1111C2.35425 10.7463 2.33355 10.3756 2.33355 10C2.33355 9.62444 2.35425 9.25367 2.39458 8.88889H1.22244C0.608795 8.88889 0.111328 8.39145 0.111328 7.77778C0.111328 7.16413 0.608795 6.66667 1.22244 6.66667H2.90257C4.27536 2.78269 7.97944 0 12.3336 0C14.0929 0 15.7886 0.455911 17.2847 1.30994C17.8176 1.61417 18.003 2.29281 17.6988 2.82574C17.3946 3.35868 16.7159 3.54409 16.183 3.23987C15.0202 2.57614 13.704 2.22222 12.3336 2.22222C9.23088 2.22222 6.55255 4.03894 5.30425 6.66667H10.1113C10.725 6.66667 11.2224 7.16413 11.2224 7.77778C11.2224 8.39145 10.725 8.88889 10.1113 8.88889H4.63454C4.58263 9.25178 4.55577 9.62278 4.55577 10C4.55577 10.3772 4.58263 10.7482 4.63454 11.1111H10.1113C10.725 11.1111 11.2224 11.6086 11.2224 12.2222C11.2224 12.8359 10.725 13.3333 10.1113 13.3333H5.30425C6.55255 15.961 9.23088 17.7778 12.3336 17.7778C13.6766 17.7778 14.9677 17.4379 16.1137 16.7992C16.6497 16.5004 17.3264 16.6929 17.6251 17.2289C17.9239 17.7649 17.7316 18.4416 17.1956 18.7403C15.7209 19.5622 14.0577 20 12.3336 20C7.97944 20 4.27536 17.2173 2.90257 13.3333H1.22244C0.608795 13.3333 0.111328 12.8359 0.111328 12.2222C0.111328 11.6086 0.608795 11.1111 1.22244 11.1111H2.39458Z" fill="#CF000C"/>
</svg>
