<svg width="418" height="409" viewBox="0 0 418 409" fill="none" xmlns="http://www.w3.org/2000/svg">
<path d="M164.381 256.461C177.069 249.271 186.759 255.677 190.018 259.779C193.161 264.185 195.58 269.439 196.015 278.437C196.364 285.634 188.203 297.307 184.079 302.244C181.688 303.396 176.665 306.203 175.708 308.216C174.511 310.732 170.325 313.718 166.486 315.792C162.647 317.866 163.119 318.527 159.341 322.551C155.564 326.576 128.25 341.408 123.095 335.113C118.97 330.078 116.701 329.259 116.083 329.478C114.174 330.065 109.532 330.827 106.237 329.19C102.117 327.143 99.9164 324.058 99.3509 322.8C98.7853 321.541 92.7863 305.211 119.128 285.754C145.469 266.296 148.521 265.449 164.381 256.461Z" fill="#EBEBEB"/>
<path d="M175.747 198.983C176.69 200.305 184.06 211.916 183.792 213.521C182.833 219.255 185.082 221.025 178.936 228.248C174.018 234.027 159.936 236.858 153.509 237.552C151.009 236.642 145.48 235.03 143.367 235.855C140.725 236.887 135.654 236.039 131.479 234.751C127.305 233.463 127.161 234.323 121.631 234.577C116.101 234.831 86.3451 225.728 87.2498 217.039C87.9736 210.087 86.9729 207.758 86.3821 207.463C84.6256 206.482 80.8296 203.587 79.6968 199.861C78.2808 195.204 78.9521 191.191 79.4587 189.802C79.9654 188.413 87.4757 171.398 119.867 176.226C152.258 181.054 165.15 184.131 175.747 198.983Z" fill="#CF000C"/>
<path d="M212.559 174.76C211.999 176.354 206.59 189.446 205.152 189.983C200.018 191.904 199.796 195.012 190.682 192.55C183.39 190.581 173.565 178.079 169.563 172.075C168.957 169.149 167.295 162.878 165.497 161.202C163.251 159.107 161.218 153.671 160.019 148.901C158.82 144.131 158.05 144.419 154.883 139.081C151.716 133.743 143.112 99.7814 150.6 96.3288C156.591 93.5667 157.931 91.413 157.853 90.6814C157.703 88.4545 158.002 83.2551 160.398 80.2718C163.393 76.5427 166.987 75.1985 168.378 75.0046C169.768 74.8106 187.504 73.7219 200.965 108.15C214.426 142.578 218.852 156.858 212.559 174.76Z" fill="#F4AD17"/>
<path d="M271.286 183.425C269.766 183.945 256.741 187.632 255.395 186.895C250.587 184.261 248.205 185.914 243.891 177.813C240.44 171.333 242.871 156.851 244.518 150.421C246.217 148.27 249.616 143.394 249.622 141.102C249.629 138.237 252.181 133.577 254.81 129.917C257.44 126.256 256.719 125.861 258.444 120.43C260.168 114.998 278.846 88.8847 286.326 92.3442C292.311 95.1118 294.754 94.8348 295.228 94.3504C296.729 92.941 300.668 90.1247 304.412 90.1352C309.093 90.1483 312.458 91.9916 313.526 92.8952C314.594 93.7987 327.215 106.131 311.444 136.068C295.673 166.005 288.359 177.576 271.286 183.425Z" fill="#CF000C"/>
<path d="M282.859 247.736C281.405 246.877 269.621 239.03 269.373 237.516C268.484 232.106 265.481 231.286 269.657 222.823C272.998 216.052 287.151 208.839 293.81 206.079C296.795 206.052 303.262 205.638 305.252 204.2C307.74 202.402 313.461 201.463 318.368 201.213C323.274 200.962 323.141 200.151 328.986 198.08C334.83 196.009 369.779 194.158 371.713 202.173C373.261 208.586 375.113 210.319 375.845 210.383C378.056 210.668 383.094 211.971 385.554 214.9C388.629 218.561 389.251 222.348 389.172 223.75C389.093 225.152 386.728 242.761 350.383 249.286C314.037 255.811 299.186 257.382 282.859 247.736Z" fill="#F4AD17"/>
</svg>
