<svg width="40" height="51" viewBox="0 0 40 51" fill="none" xmlns="http://www.w3.org/2000/svg">
<path d="M6.34033 10.4932C7.94993 10.8943 12.1349 11.4558 15.9979 10.4932C15.8906 11.4023 15.9013 13.5736 16.8027 14.9854C17.7041 16.3973 18.8018 19.6383 19.231 20.8148" stroke="#F4AD17" stroke-width="2"/>
<path d="M19.2312 21.7361L20.1524 18.5121L21.0735 21.7361H19.2312Z" stroke="#FDECB2"/>
<path d="M8.12145 30.2004C6.13448 29.6443 3.97334 30.1511 1.9438 29.562C1.9438 32.3234 1.78311 35.4845 1.78311 38.2192C1.78311 38.822 1.55969 39.9744 1.81882 40.5102C2.08034 41.051 2.97515 41.0524 3.47036 41.0524H6.9252C8.05612 41.0524 8.81731 39.0181 8.85349 38.0967C8.90492 36.7869 9.01418 35.4644 9.01418 34.1267C9.01418 33.2907 9.21008 30.505 8.12145 30.2004Z" fill="#F4AD17" stroke="#F4AD17" stroke-width="3" stroke-linecap="round"/>
<path d="M16.7317 14.8881C16.1957 13.816 15.5257 8.85767 15.5257 8.85767H5.87691C5.7429 9.92974 5.15326 12.6367 3.86677 14.8881C2.25866 17.7023 0.650544 21.3205 0.650544 24.9388C0.650544 27.8334 0.650544 40.3499 0.650544 46.2463C0.516535 47.4523 2.25866 49.9449 10.2992 50.2665C12.307 50.2665 17.3005 49.5966 19.2303 47.9885" stroke="#F4AD17"/>
<path d="M21.5588 14.8881C22.8453 12.6367 23.4349 9.92974 23.5689 8.85767H33.2177C33.2177 8.85767 33.8877 13.816 34.4238 14.8881C36.9967 19.0692 37.64 24.4027 37.64 26.5469V46.2463C37.774 47.7204 36.0318 50.5882 27.9912 50.2665C19.9507 49.9449 18.2086 47.4524 18.3426 46.2463V24.9388C18.3426 21.3205 19.9507 17.7023 21.5588 14.8881Z" stroke="#F4AD17"/>
<path d="M18.3084 46.2463C18.1744 47.4523 20.87 49.9449 28.9106 50.2665C36.9511 50.5882 38.6933 47.7204 38.5593 46.2463V26.5469C38.5593 24.4027 37.9161 19.0692 35.3431 14.8881C34.807 13.816 34.137 8.85767 34.137 8.85767" stroke="#F4AD17"/>
<path d="M29.4291 21.6115C32.8025 23.5957 32.3754 35.816 32.0435 40.6619L33.1524 40.7339C33.5006 39.8426 34.1526 36.681 33.9751 31.1651C33.7531 24.2702 31.6911 21.8685 30.5595 21.1952C29.6542 20.6566 28.7162 21.0746 29.4291 21.6115Z" fill="#F4AD17"/>
<path d="M21.2701 9.17174C20.7391 9.31323 20.0985 9.88428 20.8121 10.0989C21.2058 10.3462 20.4017 11.3173 21.3765 11.9687C22.0285 12.4779 22.7722 12.7827 23.4953 13.1499C24.5607 13.4721 25.7051 13.6873 26.8636 13.8113C27.7567 13.7419 28.5416 13.9043 29.4049 13.9067C30.3617 13.9559 31.2896 13.742 32.2396 13.5787C33.9403 13.2864 35.9132 11.0012 36.1438 10.987C36.7599 10.875 37.8337 10.2776 37.043 9.65336C36.7784 9.39134 37.2718 8.96193 37.1373 8.68488C37.0357 8.31803 37.1928 8.15772 37.2153 7.8205C36.8396 6.62134 34.9525 5.88537 33.4922 5.82923C32.9766 6.00474 32.054 6.27817 31.2835 6.3237C30.9448 6.36064 30.4265 6.34153 30.0727 6.59679C29.5977 6.50785 29.1954 6.69089 28.6832 6.89125C28.07 7.00177 27.7217 7.18561 27.3093 7.36384C27.0168 7.49026 26.8865 7.03794 26.6087 7.20109C26.2892 7.48748 25.9645 7.63066 25.8735 7.59161C25.2483 7.34824 24.6523 7.81472 23.9018 8.15767C23.2332 8.49565 22.0857 8.23272 21.624 8.91662C21.5471 9.03571 21.4233 9.15001 21.2701 9.17174Z" fill="#CF0014"/>
<path d="M35.8795 8.37334C36.4051 8.29286 36.9829 7.83157 36.2197 7.57149C35.7806 7.31086 36.4702 6.50046 35.3775 5.8194C34.6362 5.29702 33.8295 4.95222 33.0351 4.5525C31.8954 4.16261 30.6896 3.86292 29.4822 3.64493C28.5744 3.62689 27.7454 3.40786 26.8582 3.32728C25.8685 3.19559 24.9453 3.30589 23.9924 3.36816C22.2864 3.47965 20.5806 5.37912 20.3458 5.37116C19.7286 5.41704 18.7094 5.86292 19.6093 6.5026C19.9179 6.76499 19.4714 7.11079 19.6485 7.37502C19.8044 7.71796 19.6655 7.84952 19.6897 8.15423C20.244 9.27917 22.2858 10.12 23.7938 10.3037C24.2988 10.1909 25.2081 10.026 25.9933 10.0546C26.336 10.0517 26.8711 10.1162 27.1987 9.91613C27.6991 10.0402 28.0866 9.91021 28.5847 9.77447C29.1991 9.72964 29.5311 9.59404 29.9296 9.46936C30.2123 9.38094 30.4097 9.80422 30.6722 9.68105C30.9602 9.44955 31.2736 9.3488 31.3726 9.39259C32.049 9.67075 32.5957 9.30056 33.3185 9.05675C33.9578 8.81003 35.1735 9.15343 35.5518 8.57327C35.6141 8.47192 35.7252 8.37918 35.8795 8.37334Z" fill="#CF0014"/>
<path d="M18.1003 11.3754C18.6458 11.3089 19.3592 10.8321 18.6823 10.5206C18.3267 10.2212 19.2576 9.37086 18.3825 8.59068C17.8074 7.99607 17.1131 7.59115 16.4479 7.12725C15.4374 6.66047 14.3339 6.28875 13.2037 6.00542C12.3096 5.9503 11.5548 5.68068 10.7002 5.55866C9.75944 5.3773 8.81084 5.46054 7.84738 5.49061C6.12259 5.54444 3.85201 7.53407 3.6217 7.51625C2.99599 7.54173 1.84972 7.98452 2.54627 8.71235C2.77202 9.00852 2.2239 9.3654 2.31872 9.65842C2.3685 10.0358 2.19067 10.1728 2.12169 10.5037C2.32752 11.7433 4.0944 12.7337 5.53284 12.9917C6.0678 12.8894 7.01936 12.7464 7.78878 12.8081C8.12935 12.8185 8.63995 12.9093 9.02574 12.7055C9.48376 12.8594 9.90755 12.7339 10.4426 12.6064C11.0652 12.582 11.4356 12.4482 11.8687 12.3288C12.1759 12.2442 12.2423 12.7102 12.5401 12.5871C12.8961 12.3478 13.2376 12.251 13.3223 12.3023C13.9077 12.6299 14.5626 12.2506 15.3534 12.0149C16.0624 11.7729 17.1623 12.1923 17.7144 11.579C17.8071 11.4717 17.9455 11.3757 18.1003 11.3754Z" fill="#CF0014"/>
<path d="M2.88398 10.4581C2.3385 10.5246 1.62501 11.0014 2.30196 11.3129C2.65759 11.6123 1.72668 12.4626 2.6017 13.2428C3.17685 13.8374 3.87112 14.2423 4.53637 14.7062C5.54688 15.173 6.65037 15.5447 7.78051 15.8281C8.67465 15.8832 9.42946 16.1528 10.2841 16.2748C11.2248 16.4562 12.1734 16.373 13.1369 16.3429C14.8617 16.2891 17.1322 14.2994 17.3625 14.3172C17.9883 14.2918 19.1345 13.849 18.438 13.1211C18.2122 12.825 18.7604 12.4681 18.6655 12.1751C18.6158 11.7977 18.7936 11.6607 18.8626 11.3298C18.6567 10.0902 16.8899 9.09978 15.4514 8.84179C14.9165 8.94414 13.9649 9.08706 13.1955 9.02536C12.8549 9.015 12.3443 8.92424 11.9585 9.128C11.5005 8.97409 11.0767 9.09961 10.5417 9.22705C9.91903 9.25151 9.5486 9.3853 9.11551 9.50466C8.80833 9.58932 8.74197 9.12331 8.44419 9.24637C8.08812 9.48573 7.74667 9.58252 7.66197 9.53123C7.07653 9.20356 6.42161 9.58293 5.6309 9.81856C4.92189 10.0606 3.82192 9.64118 3.26982 10.2545C3.17716 10.3618 3.03874 10.4578 2.88398 10.4581Z" fill="#CF0014"/>
</svg>
