<svg width="56" height="65" viewBox="0 0 56 65" fill="none" xmlns="http://www.w3.org/2000/svg">
<path d="M30.293 30.1754C29.6989 30.5359 29.5531 29.6783 29.6901 29.2899C29.9757 28.9474 30.1672 28.7208 30.2496 28.2136C30.401 27.6981 30.8053 27.8295 31.1223 27.4412C31.4973 27.0063 31.8831 26.5018 32.323 26.2111C33.0169 25.9063 33.8371 25.516 34.543 25.2444C35.4494 24.9193 36.3085 24.5837 37.2447 24.3437C38.755 23.8102 39.5054 24.1662 40.4047 24.9645C40.8364 25.2882 41.0291 25.8818 41.0297 26.4042C40.8813 26.8336 40.8493 27.0621 41.3372 27.2902C41.521 27.4403 41.3639 28.4163 41.2082 28.5775C40.6931 29.1108 40.0489 29.5326 39.3545 29.7758C38.7891 29.9595 38.2078 30.1283 37.6066 30.096C37.049 30.087 36.5532 30.3723 36.034 30.5341C35.4856 30.6962 34.9151 31.0281 34.3596 30.7003C33.9149 30.558 33.4369 30.9753 33.0142 30.6502C32.6603 30.5927 32.2482 30.9467 31.7948 30.5766C31.2737 30.5508 31.0485 30.7672 30.6225 30.3807C30.5347 30.2588 30.4098 30.1046 30.293 30.1754Z" fill="#CF0014"/>
<path d="M27.4237 32.2165C26.914 31.7442 27.6987 31.3686 28.1098 31.3937C28.5174 31.5744 28.7879 31.6964 29.2983 31.6365C29.8355 31.6406 29.8201 32.0654 30.2805 32.2638C30.8016 32.5049 31.3926 32.7376 31.7929 33.0808C32.2763 33.6645 32.8767 34.3461 33.3316 34.9503C33.8929 35.7327 34.4513 36.4668 34.939 37.3012C35.8665 38.6071 35.73 39.4264 35.2091 40.5102C35.0164 41.0142 34.4984 41.3624 33.9962 41.5063C33.5425 41.4814 33.3141 41.5133 33.2286 42.0451C33.1347 42.2631 32.1531 42.3798 31.9553 42.2743C31.3012 41.9253 30.7188 41.4216 30.2944 40.8206C29.9625 40.3272 29.6408 39.8146 29.5068 39.2276C29.3625 38.6889 28.9521 38.2905 28.654 37.8356C28.3477 37.3527 27.8719 36.8952 28.0347 36.271C28.0496 35.8044 27.5171 35.4592 27.7138 34.9636C27.672 34.6075 27.2184 34.3083 27.45 33.7708C27.3318 33.2626 27.0619 33.1054 27.3167 32.5897C27.4098 32.4718 27.5238 32.3094 27.4237 32.2165Z" fill="#CF0014"/>
<path d="M28.2296 32.0204C36.4129 30.52 42.6197 44.767 44.7002 52.0781L46.9541 54.4248C47.1713 52.7124 46.7237 47.3849 43.1954 39.7743C38.7851 30.2611 33.1024 29.4888 30.3529 29.9812C28.1532 30.3751 28.0208 31.5048 28.2296 32.0204Z" fill="#F4AD17" stroke="#F4AD17"/>
<path d="M21.6725 10.4919C27.2476 11.9191 29.9026 16.4886 30.5332 18.5949L31.0029 18.3337C30.0743 13.7605 26.0113 10.9452 24.0959 10.1093C17.2759 7.40886 13.7492 9.67755 10.0473 11.8682C6.34543 14.0589 4.96345 19.7856 4.91544 21.8307C4.86744 23.8757 5.73336 27.9573 7.97119 31.188C10.209 34.4188 13.4829 35.406 16.6746 36.0878C19.228 36.6332 22.307 35.7338 23.5274 35.216L23.0798 34.4119C19.7321 36.4494 10.6603 34.9137 7.50807 27.6722C4.35585 20.4307 7.79638 16.5865 9.22771 14.7373C10.659 12.8882 14.7035 8.708 21.6725 10.4919Z" fill="#CF0014"/>
<path d="M23.3443 34.0742C18.0525 36.3429 13.1566 34.3437 11.3701 33.0604L11.1573 33.5536C14.6868 36.6081 19.6274 36.3602 21.6566 35.8544C28.7131 33.8349 30.1234 29.889 31.7204 25.8981C33.3173 21.9071 30.9152 16.5308 29.7042 14.8825C28.4932 13.2341 25.3137 10.5307 21.5662 9.33703C17.8188 8.14341 14.6202 9.35756 11.6733 10.7634C9.31572 11.8881 7.42392 14.4771 6.77271 15.631L7.6187 15.9947C9.02837 12.3409 17.1587 8.02667 24.0808 11.8382C31.0029 15.6497 30.6231 20.7905 30.6178 23.127C30.6124 25.4635 29.959 31.2383 23.3443 34.0742Z" fill="#CF0014"/>
<path d="M23.9444 33.7476C18.6539 36.0195 13.7273 34.8411 11.9253 33.5188L11.7156 34.02C15.2798 37.1617 20.2339 36.0494 22.2654 35.5495C29.328 33.5454 30.712 29.5333 32.2828 25.4767C33.8536 21.42 31.4022 15.9198 30.1746 14.2298C28.947 12.5399 25.7367 9.75871 21.9683 8.51256C18.1999 7.26641 15.0009 8.47941 12.0558 9.88982C9.6997 11.0182 7.17795 14.8145 7.17795 14.8145L8.02939 15.1919C9.41499 11.4776 17.5369 7.14225 24.5101 11.0822C31.4833 15.0222 31.1424 20.2606 31.1552 22.6428C31.168 25.0249 30.5576 30.9077 23.9444 33.7476Z" fill="#CF0014"/>
<path d="M11.5172 18.3473C12.6725 14.3895 20.3616 14.8096 24.0618 15.5143L25.6021 15.0382C24.8921 14.5611 22.4335 13.5743 18.2787 13.4441C13.0853 13.2813 11.4797 15.6262 11.0864 16.9534C10.7717 18.0151 11.2425 18.325 11.5172 18.3473Z" fill="#F4AD17"/>
</svg>
