<svg width="37" height="49" viewBox="0 0 37 49" fill="none" xmlns="http://www.w3.org/2000/svg">
<path d="M30.3463 9.07446C30.3463 12.6972 31.1146 16.2309 32.5437 19.183L32.6195 19.339C34.0982 22.3929 34.8928 26.0485 34.8926 29.7973L34.8926 43.6088C34.8926 44.7906 34.5733 45.924 34.0049 46.7597C33.4365 47.5954 32.6656 48.0649 31.8617 48.0649L22.7691 48.0649C21.9653 48.0649 21.1944 47.5954 20.626 46.7597C20.0576 45.924 19.7383 44.7906 19.7383 43.6088L19.7383 29.7951C19.7383 26.0475 20.5324 22.3936 22.0114 19.339L22.0872 19.183C23.5165 16.2312 24.2846 12.6979 24.2846 9.07446" stroke="#F4AD17" stroke-linecap="round" stroke-linejoin="round"/>
<path d="M31.1588 9.07446C31.1588 12.6972 31.9271 16.2309 33.3562 19.183L33.432 19.339C34.9107 22.3929 35.7053 26.0485 35.7051 29.7973L35.7051 43.6088C35.7051 44.7906 35.3858 45.924 34.8174 46.7597C34.249 47.5954 33.4781 48.0649 32.6743 48.0649L23.5817 48.0649" stroke="#F4AD17" stroke-linecap="round" stroke-linejoin="round"/>
<path d="M14.1361 3.02368C14.1361 7.23988 15.0828 11.3524 16.8436 14.7881L16.937 14.9696C18.759 18.5238 19.738 22.7782 19.7378 27.1411L19.7378 43.215C19.7378 44.5904 19.3444 45.9095 18.644 46.882C17.9437 47.8546 16.9938 48.401 16.0034 48.401L4.80001 48.401C3.80957 48.401 2.85969 47.8546 2.15935 46.882C1.459 45.9095 1.06555 44.5904 1.06555 43.215L1.06555 27.1385C1.06555 22.7771 2.04398 18.5246 3.86639 14.9696L3.95975 14.7881C5.72087 11.3527 6.66724 7.24062 6.66723 3.02368" stroke="#F4AD17" stroke-linecap="round" stroke-linejoin="round"/>
<path d="M14.948 3.02368C14.948 7.23988 15.8946 11.3524 17.6554 14.7881L17.7488 14.9696C19.5708 18.5238 20.5498 22.7782 20.5496 27.1411L20.5496 43.215C20.5496 44.5904 20.1562 45.9095 19.4558 46.882C18.7555 47.8546 17.8056 48.401 16.8152 48.401L5.61182 48.401" stroke="#F4AD17" stroke-linecap="round" stroke-linejoin="round"/>
<path d="M28.6071 18.3966C31.1063 19.4566 31.5926 28.0902 31.6711 31.53L32.4553 31.4704C32.6427 30.8093 32.8976 28.5218 32.4178 24.6616C31.8181 19.8363 30.2139 18.3526 29.375 17.9917C28.7039 17.7029 28.0714 18.0899 28.6071 18.3966Z" fill="#F4AD17"/>
<path d="M12.9602 16.0365C15.4594 17.0964 15.9456 25.729 16.0242 29.1685L16.8083 29.109C16.9958 28.4478 17.2507 26.1606 16.7709 22.3008C16.1711 17.4761 14.5669 15.9925 13.728 15.6316C13.057 15.3429 12.4245 15.7299 12.9602 16.0365Z" fill="#F4AD17"/>
<path d="M5.64728 3.12844C5.03345 3.26192 5.16094 2.48589 5.39223 2.19417C5.7371 1.98542 5.96742 1.84806 6.18705 1.43867C6.46805 1.04257 6.77501 1.27372 7.16018 1.03502C7.60855 0.773489 8.08673 0.455729 8.54823 0.336537C9.23102 0.280112 10.0469 0.187595 10.7302 0.162987C11.6006 0.151659 12.4336 0.117387 13.3045 0.187543C14.7524 0.175568 15.2892 0.700512 15.8231 1.64737C16.0971 2.05097 16.0872 2.61507 15.9341 3.06182C15.681 3.38527 15.5865 3.57112 15.9364 3.90958C16.0495 4.09196 15.6282 4.88004 15.4476 4.9721C14.8506 5.27647 14.1759 5.44761 13.5108 5.45135C12.9733 5.44213 12.4269 5.41547 11.9224 5.2111C11.4484 5.03946 10.9407 5.13756 10.4493 5.12321C9.93286 5.10046 9.34759 5.21648 8.9691 4.7729C8.63086 4.52047 8.09949 4.73668 7.83381 4.33446C7.54819 4.18123 7.09179 4.3627 6.81309 3.91299C6.37519 3.7377 6.11907 3.85645 5.86854 3.40079C5.82932 3.27077 5.76791 3.10221 5.64728 3.12844Z" fill="#CF0014"/>
<path d="M22.7383 7.65741C22.1206 7.77169 22.2723 7.00001 22.5126 6.71565C22.8638 6.51775 23.0983 6.38764 23.3305 5.98531C23.6238 5.59816 23.9234 5.83877 24.3158 5.6122C24.7721 5.36478 25.26 5.06209 25.725 4.95734C26.4092 4.92224 27.2276 4.85522 27.9113 4.85193C28.7816 4.86775 29.6153 4.85948 30.4836 4.95676C31.9311 4.98994 32.4512 5.53137 32.9555 6.49442C33.2166 6.90637 33.1892 7.46989 33.0222 7.91165C32.7592 8.22704 32.6589 8.40986 32.9981 8.75906C33.1054 8.94488 32.6598 9.71945 32.4764 9.80582C31.8702 10.0914 31.1904 10.2414 30.5255 10.2244C29.9887 10.1985 29.4433 10.1548 28.9455 9.93477C28.477 9.74843 27.9666 9.83065 27.4759 9.80098C26.9603 9.76213 26.3717 9.85984 26.0073 9.40467C25.6771 9.14182 25.1392 9.34135 24.8862 8.93104C24.6055 8.76898 24.1437 8.93613 23.8791 8.47794C23.4469 8.28909 23.1872 8.39979 22.951 7.93653C22.9159 7.80536 22.8597 7.63496 22.7383 7.65741Z" fill="#CF0014"/>
</svg>
