<svg width="30" height="48" viewBox="0 0 30 48" fill="none" xmlns="http://www.w3.org/2000/svg">
<path fill-rule="evenodd" clip-rule="evenodd" d="M19.1102 9.67473C19.0499 9.47074 18.9525 9.02372 18.3269 8.69845C18.2626 8.0552 17.5625 7.39208 16.9889 7.38551C15.1345 7.36428 13.1044 7.65689 12.0479 8.19599C11.8295 8.24638 11.9747 8.5227 11.7999 8.61193C10.3253 8.59504 8.2361 9.88626 8.2361 10.724C8.2361 11.539 10.1084 12.1905 10.5597 12.1957L16.5254 12.3524C17.6996 12.3659 18.7251 11.7131 18.7251 11.0505C18.8766 11.0339 19.0049 10.8897 19.1102 10.7482C19.2154 10.6067 19.1704 9.87872 19.1102 9.67473Z" fill="#CF0014"/>
<path d="M13.501 1.49205L13.7746 1.49735L13.9293 1.27045C14.0767 1.05422 14.219 0.958296 14.3251 0.908981C14.4278 0.861246 14.5127 0.84721 14.6167 0.830011C14.6299 0.827824 14.6434 0.825586 14.6573 0.823221C14.6572 0.823242 14.6573 0.823231 14.6576 0.823191C14.6598 0.822915 14.6727 0.821299 14.6991 0.819963C14.7275 0.818531 14.7636 0.817796 14.806 0.818135C14.8911 0.818816 14.9914 0.823727 15.0895 0.83298C15.1895 0.842406 15.2758 0.855283 15.3367 0.869164C15.3405 0.870047 15.3442 0.870909 15.3476 0.871744C15.354 0.878368 15.36 0.884806 15.3657 0.891082C15.3798 0.906537 15.3902 0.91922 15.3977 0.929264L15.3938 1.31987L15.8339 1.37249C15.9063 1.38115 16.0948 1.48001 16.2621 1.84892C16.4169 2.18999 16.4984 2.65991 16.4345 3.15247L15.5712 9.05357L15.5712 9.05356L15.5702 9.06091C15.5702 9.06082 15.5698 9.06403 15.5683 9.07098C15.5669 9.07778 15.5648 9.08696 15.5618 9.09865C15.5556 9.12226 15.5466 9.15251 15.5342 9.18922C15.5092 9.26285 15.4735 9.35383 15.4275 9.45641C15.3353 9.66221 15.209 9.89888 15.0634 10.1177C14.9152 10.3402 14.7612 10.5225 14.6192 10.6386C14.4699 10.7607 14.4 10.7577 14.3946 10.757C14.376 10.7548 14.2595 10.7156 14.072 10.4972C13.8998 10.2967 13.7217 10.0068 13.5658 9.6605C13.2493 8.95718 13.0722 8.13055 13.1519 7.52282L13.1679 7.40128L13.1257 7.28679C13.0937 7.19979 13.0451 7.12283 12.9829 7.05849C12.9222 6.99569 12.8573 6.95384 12.8017 6.92556C12.7668 6.90786 12.7337 6.89449 12.7052 6.88438C12.5481 6.40178 12.4494 5.71424 12.419 4.91444C12.3867 4.06243 12.433 3.11818 12.5502 2.22493C12.5648 2.1136 12.6668 1.92341 12.8841 1.74704C13.0965 1.57462 13.3304 1.48875 13.501 1.49205ZM12.565 6.84256C12.5651 6.84254 12.5665 6.843 12.569 6.84396C12.5662 6.84305 12.5649 6.84257 12.565 6.84256Z" stroke="#CF0014"/>
<path d="M7.34597 32.9778C7.34597 33.6602 7.00787 37.7591 7.76298 37.8009C8.24789 37.8278 8.74632 37.9672 9.25959 37.9672C9.69204 37.9672 10.1245 37.9672 10.557 37.9672C11.1146 37.9672 11.7168 37.9471 12.2621 37.8425C12.6059 37.7766 12.8505 37.7336 12.8505 37.302C12.8505 35.9171 13.0673 34.3869 12.7625 33.0193C12.6571 32.5466 12.1504 32.4605 11.7478 32.4141C11.1038 32.3401 10.4762 32.3125 9.8295 32.3125C9.0701 32.3125 8.35009 32.3957 7.59617 32.3957" stroke="#F4AD17" stroke-width="2" stroke-linecap="round"/>
<path d="M9.01309 32.3123C8.79711 33.4062 8.43028 34.5582 8.43028 35.6732C8.43028 36.3488 8.43028 34.3219 8.43028 33.6463C8.43028 33.1895 8.48561 32.5124 8.41178 33.4483C8.36298 34.0669 8.26376 34.7108 8.26376 35.3289C8.26376 35.5688 8.19692 35.9095 8.26839 36.1422C8.35435 36.4221 8.78969 36.3402 9.01771 36.3402C9.56242 36.3402 10.0838 36.1853 10.6366 36.1853C11.774 36.1853 12.0104 34.7259 12.0104 33.8787C12.0104 33.573 12.0252 32.9713 11.719 32.7813C11.0629 32.3744 10.0483 32.4672 9.30449 32.4672C9.07013 32.4672 8.82056 32.4139 8.64305 32.5791C8.07836 33.1044 8.01987 33.4339 8.11575 34.1971C8.19426 34.822 8.50994 35.4819 8.75869 36.0605C8.78138 36.1132 8.84889 35.9838 8.89283 35.9443C9.12042 35.7397 9.37685 35.5696 9.6144 35.3762C9.87754 35.162 10.1427 34.8612 10.2897 34.5629C10.4016 34.3358 10.3489 33.5705 10.3822 33.8184C10.4597 34.3953 10.7853 34.9555 10.8771 35.5441C10.8891 35.6205 10.8543 36.302 11.0298 36.0734C11.2366 35.804 11.2715 35.4675 11.3813 35.1611C11.4655 34.926 11.5912 35.4903 11.6126 35.5484C11.6863 35.7489 11.7538 36.117 11.8855 36.2885C12.0537 36.5076 11.9985 35.7605 12.0566 35.4967C12.1808 34.9337 12.1168 34.068 11.8439 33.5602C11.4119 32.7564 10.4039 33.9015 9.98443 34.2402C9.81327 34.3784 9.35654 34.6337 9.34612 34.8857C9.3363 35.1232 9.34612 35.1628 9.34612 34.8383C9.34612 34.813 9.29668 33.2173 9.48488 33.2332C9.73103 33.254 10.1256 34.0628 10.2573 34.2358C10.4305 34.4633 10.6121 34.6288 10.8263 34.8082C11.2467 35.1602 11.0867 34.065 11.076 33.9303C11.063 33.7654 11.0205 33.588 11.0205 33.4225C11.0205 33.1862 11.0995 33.8895 11.1315 34.124C11.1383 34.173 11.2611 35.0002 11.2611 34.6275C11.2611 34.3541 11.2109 33.8087 11.2611 34.4381C11.3032 34.968 11.3443 35.4988 11.3443 36.0303" stroke="#F4AD17" stroke-width="2" stroke-linecap="round"/>
<path d="M17.0289 32.9778C17.0289 33.6602 16.7391 37.7591 17.3864 37.8009C17.802 37.8278 18.2292 37.9672 18.6692 37.9672C19.0398 37.9672 19.4105 37.9672 19.7812 37.9672C20.2591 37.9672 20.7753 37.9471 21.2427 37.8425C21.5374 37.7766 21.7471 37.7336 21.7471 37.302C21.7471 35.9171 21.9329 34.3869 21.6716 33.0193C21.5813 32.5466 21.147 32.4605 20.8019 32.4141C20.2499 32.3401 19.712 32.3125 19.1577 32.3125C18.5067 32.3125 17.8896 32.3957 17.2434 32.3957" stroke="#F4AD17" stroke-width="2" stroke-linecap="round"/>
<path d="M18.5198 32.3123C18.3471 33.4062 18.0536 34.5582 18.0536 35.6732C18.0536 36.3488 18.0536 34.3219 18.0536 33.6463C18.0536 33.1895 18.0979 32.5124 18.0388 33.4483C17.9998 34.0669 17.9204 34.7108 17.9204 35.3289C17.9204 35.5688 17.8669 35.9095 17.9241 36.1422C17.9929 36.4221 18.3411 36.3402 18.5235 36.3402C18.9593 36.3402 19.3764 36.1853 19.8187 36.1853C20.7286 36.1853 20.9177 34.7259 20.9177 33.8787C20.9177 33.573 20.9296 32.9713 20.6846 32.7813C20.1597 32.3744 19.348 32.4672 18.753 32.4672C18.5655 32.4672 18.3658 32.4139 18.2238 32.5791C17.7721 33.1044 17.7253 33.4339 17.802 34.1971C17.8648 34.822 18.1173 35.4819 18.3163 36.0605C18.3345 36.1132 18.3885 35.9838 18.4236 35.9443C18.6057 35.7397 18.8109 35.5696 19.0009 35.3762C19.2114 35.162 19.4236 34.8612 19.5411 34.5629C19.6306 34.3358 19.5885 33.5705 19.6152 33.8184C19.6772 34.3953 19.9376 34.9555 20.0111 35.5441C20.0206 35.6205 19.9928 36.302 20.1332 36.0734C20.2986 35.804 20.3266 35.4675 20.4144 35.1611C20.4818 34.926 20.5824 35.4903 20.5995 35.5484C20.6584 35.7489 20.7124 36.117 20.8178 36.2885C20.9523 36.5076 20.9082 35.7605 20.9547 35.4967C21.054 34.9337 21.0028 34.068 20.7845 33.5602C20.4389 32.7564 19.6325 33.9015 19.2969 34.2402C19.16 34.3784 18.7946 34.6337 18.7863 34.8857C18.7784 35.1232 18.7863 35.1628 18.7863 34.8383C18.7863 34.813 18.7467 33.2173 18.8973 33.2332C19.0942 33.254 19.4098 34.0628 19.5152 34.2358C19.6538 34.4633 19.799 34.6288 19.9704 34.8082C20.3067 35.1602 20.1787 34.065 20.1702 33.9303C20.1598 33.7654 20.1258 33.588 20.1258 33.4225C20.1258 33.1862 20.189 33.8895 20.2146 34.124C20.22 34.173 20.3182 35.0002 20.3182 34.6275C20.3182 34.3541 20.2781 33.8087 20.3182 34.4381C20.352 34.968 20.3848 35.4988 20.3848 36.0303" stroke="#F4AD17" stroke-width="2" stroke-linecap="round"/>
<rect x="0.5" y="11.8087" width="28.0815" height="35.3519" rx="1.5" stroke="#CF0014"/>
<path d="M27.8402 11.6743L28.2632 44.6734C28.2775 45.7879 27.378 46.699 26.2634 46.699H0.898071" stroke="#CF0014"/>
<rect x="3.73096" y="15.7578" width="21.619" height="28.0815" rx="1.5" stroke="#F4AD17"/>
<path d="M24.9518 16.1647V41.5558C24.9518 42.6604 24.0564 43.5558 22.9518 43.5558H4.04126" stroke="#F4AD17"/>
<path fill-rule="evenodd" clip-rule="evenodd" d="M11.6955 19.2511C11.5286 19.3457 11.1558 19.5224 10.9977 20.1383C10.4457 20.326 10.006 21.0763 10.1172 21.5816C10.4768 23.2149 11.148 24.9387 11.8371 25.7568C11.9259 25.9384 12.139 25.7544 12.2531 25.8898C12.539 27.1887 14.0995 28.7606 14.8354 28.5897C15.5514 28.4235 15.7418 26.6458 15.6543 26.2483L14.5751 20.9756C14.3474 19.9414 13.5648 19.1737 12.9827 19.3088C12.9372 19.179 12.7844 19.0958 12.6386 19.0322C12.4928 18.9686 11.8624 19.1566 11.6955 19.2511Z" fill="#CF0014"/>
<path fill-rule="evenodd" clip-rule="evenodd" d="M18.1546 19.5374C17.9656 19.5044 17.5654 19.4041 17.052 19.7794C16.5065 19.5738 15.6903 19.874 15.4552 20.3349C14.6955 21.8249 14.119 23.5825 14.1316 24.652C14.0848 24.8487 14.3663 24.842 14.3684 25.019C13.7642 26.2038 13.971 28.409 14.648 28.7445C15.3066 29.0708 16.5828 27.8188 16.7677 27.4561L19.2833 22.6982C19.7644 21.7548 19.6475 20.6648 19.1121 20.3995C19.1594 20.2704 19.0942 20.109 19.022 19.9673C18.9498 19.8255 18.3435 19.5704 18.1546 19.5374Z" fill="#CF0014"/>
</svg>
