<svg width="142" height="144" viewBox="0 0 142 144" fill="none" xmlns="http://www.w3.org/2000/svg">
<path d="M41.1065 69.2846C47.6164 69.9635 49.4868 74.8207 49.6082 77.1645C49.6082 79.5891 49.1224 82.1349 46.9363 85.5293C45.1873 88.2449 39.1632 90.3785 36.3698 91.1059C35.1957 90.9039 32.629 90.621 31.7546 91.1059C30.6615 91.7121 28.3539 91.7121 26.4106 91.4696C24.4673 91.2271 24.4673 91.5908 22.0383 92.0757C19.6092 92.5607 5.76347 90.8634 5.52057 87.2266C5.32624 84.317 4.71088 83.428 4.42748 83.3472C3.57731 83.0643 1.68264 82.1349 0.905337 80.6802C-0.0662918 78.8617 -0.0662918 77.1645 0.0551619 76.5583C0.176615 75.9522 2.24133 68.436 16.9372 68.1935C31.6331 67.9511 32.9691 68.436 41.1065 69.2846Z" fill="#F4AD17"/>
<path d="M60.2407 51.2801C60.2407 52.0076 59.907 58.1596 59.3905 58.6751C57.5456 60.5167 57.9063 61.7473 53.7776 62.7824C50.4746 63.6105 44.5914 60.9792 42.0627 59.56C41.3863 58.5779 39.7866 56.5515 38.7992 56.3026C37.5651 55.9914 35.9333 54.3627 34.7437 52.807C33.5541 51.2513 33.2774 51.5275 31.1908 50.1814C29.1042 48.8352 20.6053 37.7738 23.2008 34.8401C25.2773 32.4932 25.5186 31.3837 25.3797 31.1223C24.9938 30.3074 24.3613 28.2642 24.9186 26.6107C25.6152 24.5438 26.9066 23.2547 27.4538 22.8801C28.0009 22.5054 35.18 18.2541 45.756 28.4423C56.3321 38.6306 60.2402 43.1068 60.2407 51.2801Z" fill="#F4AD17"/>
<path d="M80.0048 52.024C79.3848 52.4594 73.9959 55.8265 73.3306 55.6486C70.954 55.0129 70.063 56.0891 67.3746 52.8199C65.2239 50.2046 64.8925 43.089 64.9957 39.8581C65.5368 38.6333 66.5639 35.914 66.3441 34.8352C66.0693 33.4867 66.7435 30.9752 67.5489 28.9238C68.3543 26.8725 67.9978 26.7771 68.2322 24.0064C68.4666 21.2356 74.1753 6.61167 77.811 7.30072C80.7196 7.85196 81.7707 7.41529 81.9327 7.12805C82.4584 6.27693 83.9229 4.45854 85.5759 3.99393C87.6422 3.41318 89.3057 3.8581 89.8644 4.14919C90.423 4.44028 97.1869 8.65776 93.1311 24.7154C89.0752 40.7731 86.9702 47.1325 80.0048 52.024Z" fill="#F4AD17"/>
<path d="M99.2026 70.4629C98.5117 70.2574 92.792 68.2131 92.4924 67.5941C91.4221 65.3828 90.1207 65.3656 90.6562 61.289C91.0846 58.0277 95.7474 53.3791 98.0252 51.4625C99.2067 51.12 101.72 50.2264 102.319 49.3919C103.068 48.3486 105.215 47.3133 107.13 46.6626C109.045 46.0119 108.885 45.6802 110.931 44.1482C112.976 42.6161 126.607 37.9521 128.439 41.1601C129.904 43.7264 130.869 44.2611 131.168 44.2077C132.084 44.0842 134.257 44.0818 135.622 45.0599C137.329 46.2824 138.078 47.8303 138.233 48.4376C138.387 49.0449 139.784 56.8261 126.219 63.6405C112.653 70.4549 106.965 72.772 99.2026 70.4629Z" fill="#F4AD17"/>
<path d="M86.6675 96.9274C86.3603 96.2361 84.1002 90.3086 84.404 89.6916C85.4895 87.4877 84.6057 86.4072 88.3376 84.4072C91.3231 82.8073 98.3743 83.8591 101.527 84.5849C102.624 85.3516 105.095 86.8832 106.197 86.8766C107.575 86.8684 109.91 88.0142 111.768 89.1995C113.626 90.3848 113.788 90.0542 116.464 90.8196C119.139 91.5849 132.39 100.003 131.008 103.429C129.902 106.17 130.127 107.284 130.377 107.498C131.111 108.177 132.612 109.963 132.747 111.671C132.917 113.807 132.157 115.349 131.763 115.84C131.368 116.331 125.914 122.138 110.934 115.061C95.9543 107.984 90.1185 104.693 86.6675 96.9274Z" fill="#F4AD17"/>
<path d="M52.9639 101.784C56.0664 96.0208 61.5797 90.8753 64.0879 91.7326C66.6364 92.7361 69.1341 94.2408 71.8998 97.6756C74.1124 100.423 74.1445 106.9 73.884 109.795C73.2408 110.801 72.0015 113.068 72.1904 114.08C72.4264 115.346 71.5796 117.489 70.6116 119.193C69.6437 120.897 70.0259 121.047 69.6443 123.503C69.2626 125.96 62.3978 138.113 58.4859 136.833C55.3563 135.81 54.196 136.013 54.0071 136.243C53.3978 136.915 51.7255 138.29 49.9112 138.409C47.6432 138.559 45.8593 137.856 45.2667 137.493C44.6741 137.129 37.5313 132.101 42.6693 118.355C47.8072 104.61 49.0858 108.989 52.9639 101.784Z" fill="#F4AD17"/>
</svg>
