<svg width="8" height="14" viewBox="0 0 8 14" fill="none" xmlns="http://www.w3.org/2000/svg">
<path fill-rule="evenodd" clip-rule="evenodd" d="M7.4205 0.954505C6.98116 0.515165 6.26884 0.515165 5.8295 0.954505L0.579505 6.2045C0.140165 6.64384 0.140165 7.35616 0.579505 7.7955L3.2045 10.4205C3.64384 10.8598 4.35616 10.8598 4.7955 10.4205C5.23484 9.98116 5.23484 9.26884 4.7955 8.8295L2.96599 7L7.4205 2.5455C7.85983 2.10616 7.85983 1.39384 7.4205 0.954505ZM5.17325 10.7983C4.73391 11.2376 4.73391 11.9499 5.17325 12.3892L5.8295 13.0455C6.26884 13.4848 6.98116 13.4848 7.4205 13.0455C7.85983 12.6062 7.85983 11.8938 7.4205 11.4545L6.76425 10.7983C6.32491 10.3589 5.61259 10.3589 5.17325 10.7983Z" fill="#CF000C"/>
</svg>
