<svg width="482" height="490" viewBox="0 0 482 490" fill="none" xmlns="http://www.w3.org/2000/svg">
<path d="M303.036 18.0506C199.425 4.75604 195.356 136.091 209.286 175.353C214.833 190.987 230.798 196.868 246.994 184.356C267.025 168.882 356.291 24.8839 303.036 18.0506Z" fill="#CF000C"/>
<path d="M28.1711 380.547C54.7784 453.31 100.145 464.384 114.462 463.001C97.9571 474.553 99.5748 474.326 97.9574 474.553C67.0913 478.881 41.2238 443.738 29.6376 412.077C22.8972 393.659 11.8177 335.825 28.1711 380.547Z" fill="#F4AD17"/>
<path d="M279.45 74.3475C335.225 32.6199 389.137 29.054 409.121 32.487C514.542 71.0253 480.188 187.637 459.642 255.079C439.097 322.521 368.367 447.438 246.442 460.727C124.518 474.016 20.4439 381.989 53.4512 293.285C86.4584 204.58 209.73 126.507 279.45 74.3475Z" fill="#FFF6F7"/>
</svg>
