<svg width="96" height="98" viewBox="0 0 96 98" fill="none" xmlns="http://www.w3.org/2000/svg">
<path d="M27.7903 47.152C32.1914 47.614 33.4559 50.9196 33.538 52.5147C33.538 54.1648 33.2095 55.8973 31.7316 58.2074C30.5492 60.0555 26.4765 61.5076 24.588 62.0026C23.7943 61.8651 22.0591 61.6726 21.4679 62.0026C20.7289 62.4151 19.1688 62.4151 17.855 62.2501C16.5413 62.0851 16.5413 62.3326 14.8991 62.6626C13.2569 62.9926 3.89643 61.8376 3.73221 59.3625C3.60084 57.3824 3.18482 56.7774 2.99323 56.7223C2.41846 56.5298 1.13756 55.8973 0.612059 54.9073C-0.044817 53.6697 -0.044817 52.5147 0.0372925 52.1021C0.119402 51.6896 1.51526 46.5744 11.4505 46.4094C21.3858 46.2444 22.289 46.5744 27.7903 47.152Z" fill="#F4AD17"/>
<path d="M40.7263 34.899C40.7263 35.3941 40.5007 39.5808 40.1515 39.9317C38.9043 41.1849 39.1481 42.0225 36.3569 42.7269C34.1239 43.2905 30.1465 41.4997 28.4369 40.5339C27.9796 39.8655 26.8981 38.4864 26.2307 38.317C25.3963 38.1053 24.2932 36.9968 23.4889 35.9381C22.6847 34.8794 22.4976 35.0673 21.0869 34.1512C19.6763 33.2351 13.9305 25.7072 15.6853 23.7107C17.0891 22.1134 17.2522 21.3583 17.1583 21.1804C16.8974 20.6258 16.4698 19.2354 16.8466 18.11C17.3175 16.7034 18.1906 15.8261 18.5605 15.5712C18.9304 15.3162 23.7838 12.4229 30.9338 19.3566C38.0839 26.2903 40.7259 29.3365 40.7263 34.899Z" fill="#CF000C"/>
<path d="M54.0876 35.4051C53.6685 35.7014 50.0253 37.9929 49.5755 37.8718C47.9688 37.4392 47.3664 38.1716 45.5489 35.9468C44.0949 34.1669 43.8709 29.3244 43.9406 27.1256C44.3064 26.292 45.0008 24.4414 44.8522 23.7072C44.6665 22.7894 45.1223 21.0802 45.6667 19.6841C46.2112 18.2881 45.9702 18.2232 46.1287 16.3375C46.2871 14.4519 50.1465 4.49949 52.6045 4.96842C54.5709 5.34357 55.2815 5.04639 55.391 4.85091C55.7464 4.27168 56.7365 3.03416 57.854 2.71797C59.2509 2.32273 60.3756 2.62553 60.7533 2.82363C61.1309 3.02173 65.7037 5.89197 62.9617 16.8201C60.2197 27.7482 58.7966 32.0761 54.0876 35.4051Z" fill="#F4AD17"/>
<path d="M67.0665 47.9539C66.5994 47.814 62.7326 46.4228 62.5301 46.0015C61.8065 44.4966 60.9267 44.4849 61.2887 41.7105C61.5784 39.491 64.7306 36.3274 66.2706 35.023C67.0693 34.7899 68.7681 34.1818 69.1734 33.6138C69.6801 32.9039 71.1315 32.1993 72.4261 31.7564C73.7207 31.3136 73.6122 31.0879 74.9953 30.0452C76.3784 29.0026 85.5936 25.8285 86.8317 28.0116C87.8222 29.7582 88.4746 30.1221 88.6769 30.0857C89.2961 30.0017 90.7652 30.0001 91.6882 30.6657C92.842 31.4977 93.3485 32.5511 93.453 32.9644C93.5575 33.3777 94.5019 38.6733 85.3309 43.3109C76.1599 47.9484 72.3143 49.5253 67.0665 47.9539Z" fill="#CF000C"/>
<path d="M58.5923 65.9646C58.3847 65.4941 56.8567 61.4601 57.0621 61.0402C57.7959 59.5404 57.1985 58.805 59.7214 57.4439C61.7398 56.3551 66.5068 57.0709 68.638 57.5649C69.38 58.0866 71.0504 59.1289 71.7954 59.1245C72.7267 59.1189 74.3054 59.8987 75.5614 60.7053C76.8175 61.512 76.9276 61.287 78.7361 61.8079C80.5447 62.3287 89.5033 68.0575 88.5688 70.3894C87.8212 72.2549 87.9731 73.0128 88.1425 73.1585C88.6386 73.6208 89.6535 74.836 89.745 75.9986C89.8593 77.4519 89.3457 78.5018 89.0791 78.8357C88.8126 79.1697 85.1253 83.1215 74.998 78.3054C64.8707 73.4893 60.9254 71.2497 58.5923 65.9646Z" fill="#F4AD17"/>
<path d="M35.8063 69.2701C37.9037 65.3476 41.631 61.8458 43.3267 62.4292C45.0497 63.1121 46.7382 64.1362 48.608 66.4738C50.1038 68.3438 50.1255 72.7515 49.9494 74.7216C49.5145 75.4066 48.6768 76.9488 48.8044 77.638C48.964 78.4995 48.3915 79.9577 47.7371 81.1173C47.0827 82.277 47.3412 82.3795 47.0831 84.051C46.8251 85.7225 42.1841 93.9937 39.5394 93.1228C37.4236 92.4261 36.6392 92.5645 36.5115 92.7209C36.0996 93.1784 34.969 94.1139 33.7424 94.1953C32.2092 94.2971 31.0031 93.819 30.6025 93.5715C30.2019 93.3241 25.373 89.9023 28.8465 80.5475C32.3201 71.1927 33.1844 74.1731 35.8063 69.2701Z" fill="#CF000C"/>
</svg>
